<svg xmlns="http://www.w3.org/2000/svg" xmlns:xlink="http://www.w3.org/1999/xlink" width="500" zoomAndPan="magnify" viewBox="0 0 375 374.999991" height="500" preserveAspectRatio="xMidYMid meet" version="1.0"><defs><g/><clipPath id="807363ea5f"><path d="M 34.261719 6.421875 L 341 6.421875 L 341 368.671875 L 34.261719 368.671875 Z M 34.261719 6.421875 " clip-rule="nonzero"/></clipPath></defs><g fill="#000000" fill-opacity="1"><g transform="translate(172.290197, 267.260183)"><g><path d="M 1.546875 0.078125 C 1.296875 0.078125 1.078125 0.03125 0.890625 -0.0625 C 0.703125 -0.15625 0.554688 -0.289062 0.453125 -0.46875 C 0.347656 -0.65625 0.296875 -0.878906 0.296875 -1.140625 C 0.296875 -1.367188 0.347656 -1.5625 0.453125 -1.71875 C 0.554688 -1.882812 0.710938 -2.019531 0.921875 -2.125 C 1.128906 -2.226562 1.40625 -2.304688 1.75 -2.359375 C 1.988281 -2.398438 2.171875 -2.441406 2.296875 -2.484375 C 2.421875 -2.523438 2.503906 -2.570312 2.546875 -2.625 C 2.585938 -2.6875 2.609375 -2.765625 2.609375 -2.859375 C 2.609375 -2.984375 2.5625 -3.078125 2.46875 -3.140625 C 2.382812 -3.210938 2.238281 -3.25 2.03125 -3.25 C 1.8125 -3.25 1.601562 -3.195312 1.40625 -3.09375 C 1.207031 -3 1.035156 -2.875 0.890625 -2.71875 L 0.8125 -2.71875 L 0.390625 -3.34375 C 0.597656 -3.570312 0.84375 -3.75 1.125 -3.875 C 1.414062 -4 1.734375 -4.0625 2.078125 -4.0625 C 2.609375 -4.0625 2.988281 -3.945312 3.21875 -3.71875 C 3.457031 -3.5 3.578125 -3.179688 3.578125 -2.765625 L 3.578125 -1.046875 C 3.578125 -0.859375 3.65625 -0.765625 3.8125 -0.765625 C 3.875 -0.765625 3.9375 -0.78125 4 -0.8125 L 4.046875 -0.796875 L 4.125 -0.09375 C 4.0625 -0.0625 3.976562 -0.03125 3.875 0 C 3.78125 0.0195312 3.675781 0.03125 3.5625 0.03125 C 3.320312 0.03125 3.132812 -0.015625 3 -0.109375 C 2.863281 -0.203125 2.769531 -0.34375 2.71875 -0.53125 L 2.640625 -0.546875 C 2.441406 -0.128906 2.078125 0.078125 1.546875 0.078125 Z M 1.875 -0.671875 C 2.101562 -0.671875 2.285156 -0.75 2.421875 -0.90625 C 2.554688 -1.0625 2.625 -1.273438 2.625 -1.546875 L 2.625 -1.953125 L 2.5625 -1.96875 C 2.5 -1.914062 2.414062 -1.875 2.3125 -1.84375 C 2.21875 -1.8125 2.082031 -1.78125 1.90625 -1.75 C 1.6875 -1.71875 1.53125 -1.65625 1.4375 -1.5625 C 1.34375 -1.476562 1.296875 -1.351562 1.296875 -1.1875 C 1.296875 -1.019531 1.34375 -0.890625 1.4375 -0.796875 C 1.539062 -0.710938 1.6875 -0.671875 1.875 -0.671875 Z M 1.875 -0.671875 "/></g></g></g><g clip-path="url(#807363ea5f)"><path fill="#7ed957" d="M 187.496094 6.421875 C 169.433594 6.421875 154.089844 18.175781 148.324219 34.28125 L 76.066406 34.28125 C 53.109375 34.28125 34.28125 53.105469 34.28125 76.066406 L 34.28125 326.78125 C 34.28125 349.742188 53.109375 368.566406 76.066406 368.566406 L 298.925781 368.566406 C 321.886719 368.566406 340.710938 349.742188 340.710938 326.78125 L 340.710938 76.066406 C 340.710938 53.105469 321.886719 34.28125 298.925781 34.28125 L 226.671875 34.28125 C 220.902344 18.175781 205.5625 6.421875 187.496094 6.421875 Z M 187.496094 34.28125 C 195.332031 34.28125 201.425781 40.375 201.425781 48.207031 L 201.425781 62.136719 L 229.28125 62.136719 L 229.28125 89.992188 L 145.710938 89.992188 L 145.710938 62.136719 L 173.570312 62.136719 L 173.570312 48.207031 C 173.570312 40.375 179.664062 34.28125 187.496094 34.28125 Z M 76.066406 62.136719 L 117.855469 62.136719 L 117.855469 117.851562 L 257.140625 117.851562 L 257.140625 62.136719 L 298.925781 62.136719 C 306.761719 62.136719 312.855469 68.230469 312.855469 76.066406 L 312.855469 326.78125 C 312.855469 334.617188 306.761719 340.710938 298.925781 340.710938 L 76.066406 340.710938 C 68.234375 340.710938 62.140625 334.617188 62.140625 326.78125 L 62.140625 76.066406 C 62.140625 68.230469 68.234375 62.136719 76.066406 62.136719 Z M 271.070312 146.90625 L 173.570312 244.40625 L 141.578125 212.523438 L 131.78125 202.621094 L 112.085938 222.316406 L 121.988281 232.109375 L 173.570312 283.796875 L 290.765625 166.601562 Z M 271.070312 146.90625 " fill-opacity="1" fill-rule="nonzero"/></g></svg>