<svg xmlns="http://www.w3.org/2000/svg" xmlns:xlink="http://www.w3.org/1999/xlink" width="1920" zoomAndPan="magnify" viewBox="0 0 1440 809.999993" height="1080" preserveAspectRatio="xMidYMid meet" version="1.0"><defs><clipPath id="a6a70aa05f"><path d="M 1155 414 L 1440 414 L 1440 810 L 1155 810 Z M 1155 414 " clip-rule="nonzero"/></clipPath><clipPath id="d2b4d9dfe0"><path d="M 1354.40625 1072.875 L 1155.320312 933.539062 L 1519.0625 413.824219 L 1718.148438 553.160156 Z M 1354.40625 1072.875 " clip-rule="nonzero"/></clipPath><clipPath id="d17cb016b0"><path d="M 1221 409 L 1440 409 L 1440 810 L 1221 810 Z M 1221 409 " clip-rule="nonzero"/></clipPath><clipPath id="9f234cccc1"><path d="M 1420.40625 1067.894531 L 1221.324219 928.558594 L 1585.0625 408.839844 L 1784.148438 548.175781 Z M 1420.40625 1067.894531 " clip-rule="nonzero"/></clipPath></defs><g clip-path="url(#a6a70aa05f)"><g clip-path="url(#d2b4d9dfe0)"><path fill="#b2ffc5" d="M 1354.40625 1072.875 L 1155.320312 933.539062 L 1518.898438 414.054688 L 1717.984375 553.390625 Z M 1354.40625 1072.875 " fill-opacity="1" fill-rule="nonzero"/></g></g><g clip-path="url(#d17cb016b0)"><g clip-path="url(#9f234cccc1)"><path fill="#83e63e" d="M 1420.40625 1067.894531 L 1221.324219 928.558594 L 1584.902344 409.070312 L 1783.984375 548.40625 Z M 1420.40625 1067.894531 " fill-opacity="1" fill-rule="nonzero"/></g></g></svg>