<svg xmlns="http://www.w3.org/2000/svg" xmlns:xlink="http://www.w3.org/1999/xlink" width="1920" zoomAndPan="magnify" viewBox="0 0 1440 809.999993" height="1080" preserveAspectRatio="xMidYMid meet" version="1.0"><defs><clipPath id="e29fa5fe95"><path d="M 0 631 L 204.65625 631 L 204.65625 747.921875 L 0 747.921875 Z M 0 631 " clip-rule="nonzero"/></clipPath><clipPath id="15845536dc"><path d="M 0 0 L 461 0 L 461 674 L 0 674 Z M 0 0 " clip-rule="nonzero"/></clipPath><clipPath id="38212feef0"><path d="M -236.261719 -695.457031 L 460.726562 -207.542969 L -181.566406 709.976562 L -878.554688 222.0625 Z M -236.261719 -695.457031 " clip-rule="nonzero"/></clipPath><clipPath id="320aa4f03a"><path d="M -186.492188 -660.617188 L 460.726562 -207.542969 L -230.40625 673.808594 L -877.625 220.734375 Z M -186.492188 -660.617188 " clip-rule="nonzero"/></clipPath><clipPath id="eca5a28a7b"><path d="M 0 420 L 156 420 L 156 810 L 0 810 Z M 0 420 " clip-rule="nonzero"/></clipPath><clipPath id="720a172b38"><path d="M -489.363281 608.425781 L -335.433594 420.394531 L 155.425781 822.230469 L 1.5 1010.261719 Z M -489.363281 608.425781 " clip-rule="nonzero"/></clipPath><clipPath id="1c745f718d"><path d="M 0 447 L 142 447 L 142 810 L 0 810 Z M 0 447 " clip-rule="nonzero"/></clipPath><clipPath id="2f2dce9400"><path d="M -503.03125 635.769531 L -349.105469 447.738281 L 141.753906 849.574219 L -12.171875 1037.601562 Z M -503.03125 635.769531 " clip-rule="nonzero"/></clipPath></defs><g clip-path="url(#e29fa5fe95)"><path fill="#09692d" d="M -4.460938 633.28125 C -4.460938 633.570312 -4.519531 633.851562 -4.628906 634.121094 C -4.742188 634.390625 -4.898438 634.625 -5.105469 634.832031 C -5.3125 635.039062 -5.546875 635.195312 -5.816406 635.308594 C -6.085938 635.417969 -6.367188 635.472656 -6.65625 635.472656 C -6.949219 635.472656 -7.226562 635.417969 -7.496094 635.304688 C -7.765625 635.195312 -8.003906 635.035156 -8.207031 634.828125 C -8.414062 634.625 -8.570312 634.386719 -8.683594 634.117188 C -8.792969 633.847656 -8.847656 633.566406 -8.847656 633.277344 C -8.847656 632.988281 -8.792969 632.707031 -8.679688 632.4375 C -8.566406 632.167969 -8.410156 631.933594 -8.203125 631.726562 C -7.996094 631.523438 -7.757812 631.363281 -7.488281 631.253906 C -7.21875 631.140625 -6.941406 631.085938 -6.648438 631.089844 C -6.359375 631.089844 -6.078125 631.144531 -5.8125 631.257812 C -5.542969 631.367188 -5.308594 631.527344 -5.101562 631.734375 C -4.898438 631.9375 -4.738281 632.175781 -4.628906 632.441406 C -4.519531 632.710938 -4.460938 632.992188 -4.460938 633.28125 Z M 16.546875 631.089844 C 16.253906 631.085938 15.976562 631.140625 15.707031 631.253906 C 15.4375 631.363281 15.199219 631.523438 14.992188 631.726562 C 14.785156 631.933594 14.628906 632.167969 14.515625 632.4375 C 14.402344 632.707031 14.347656 632.988281 14.347656 633.277344 C 14.347656 633.566406 14.402344 633.847656 14.511719 634.117188 C 14.625 634.386719 14.78125 634.625 14.988281 634.828125 C 15.191406 635.035156 15.429688 635.195312 15.699219 635.304688 C 15.96875 635.417969 16.246094 635.472656 16.539062 635.472656 C 16.828125 635.472656 17.109375 635.417969 17.378906 635.308594 C 17.648438 635.195312 17.882812 635.039062 18.089844 634.832031 C 18.296875 634.625 18.453125 634.390625 18.566406 634.121094 C 18.675781 633.851562 18.734375 633.570312 18.734375 633.28125 C 18.734375 632.992188 18.675781 632.710938 18.566406 632.441406 C 18.457031 632.175781 18.296875 631.9375 18.09375 631.734375 C 17.886719 631.527344 17.652344 631.367188 17.382812 631.257812 C 17.117188 631.144531 16.835938 631.089844 16.546875 631.089844 Z M 39.734375 631.089844 C 39.445312 631.089844 39.164062 631.144531 38.894531 631.253906 C 38.628906 631.367188 38.390625 631.523438 38.183594 631.730469 C 37.980469 631.9375 37.820312 632.171875 37.710938 632.441406 C 37.597656 632.710938 37.542969 632.992188 37.542969 633.28125 C 37.542969 633.570312 37.597656 633.851562 37.710938 634.121094 C 37.820312 634.390625 37.980469 634.625 38.183594 634.832031 C 38.390625 635.039062 38.628906 635.195312 38.894531 635.308594 C 39.164062 635.417969 39.445312 635.472656 39.734375 635.472656 C 40.027344 635.472656 40.304688 635.417969 40.574219 635.308594 C 40.84375 635.195312 41.082031 635.039062 41.285156 634.832031 C 41.492188 634.625 41.648438 634.390625 41.761719 634.121094 C 41.871094 633.851562 41.929688 633.570312 41.929688 633.28125 C 41.929688 632.992188 41.871094 632.710938 41.761719 632.441406 C 41.648438 632.171875 41.492188 631.9375 41.285156 631.730469 C 41.082031 631.523438 40.84375 631.367188 40.574219 631.253906 C 40.304688 631.144531 40.027344 631.089844 39.734375 631.089844 Z M 62.941406 631.089844 C 62.652344 631.089844 62.371094 631.144531 62.101562 631.253906 C 61.835938 631.367188 61.597656 631.523438 61.390625 631.730469 C 61.1875 631.9375 61.027344 632.171875 60.917969 632.441406 C 60.804688 632.710938 60.75 632.992188 60.75 633.28125 C 60.75 633.570312 60.804688 633.851562 60.917969 634.121094 C 61.027344 634.390625 61.1875 634.625 61.390625 634.832031 C 61.597656 635.039062 61.835938 635.195312 62.101562 635.308594 C 62.371094 635.417969 62.652344 635.472656 62.941406 635.472656 C 63.234375 635.472656 63.511719 635.417969 63.78125 635.308594 C 64.050781 635.195312 64.285156 635.039062 64.492188 634.832031 C 64.699219 634.625 64.855469 634.390625 64.96875 634.121094 C 65.078125 633.851562 65.136719 633.570312 65.136719 633.28125 C 65.136719 632.992188 65.078125 632.710938 64.96875 632.441406 C 64.855469 632.171875 64.699219 631.9375 64.492188 631.730469 C 64.285156 631.523438 64.050781 631.367188 63.78125 631.253906 C 63.511719 631.144531 63.234375 631.089844 62.941406 631.089844 Z M 86.136719 631.089844 C 85.847656 631.089844 85.566406 631.144531 85.296875 631.253906 C 85.03125 631.367188 84.792969 631.523438 84.585938 631.730469 C 84.382812 631.9375 84.222656 632.171875 84.113281 632.441406 C 84 632.710938 83.945312 632.992188 83.945312 633.28125 C 83.945312 633.570312 84 633.851562 84.113281 634.121094 C 84.222656 634.390625 84.382812 634.625 84.585938 634.832031 C 84.792969 635.039062 85.03125 635.195312 85.296875 635.308594 C 85.566406 635.417969 85.847656 635.472656 86.136719 635.472656 C 86.429688 635.472656 86.707031 635.417969 86.976562 635.308594 C 87.246094 635.195312 87.480469 635.039062 87.6875 634.832031 C 87.894531 634.625 88.050781 634.390625 88.164062 634.121094 C 88.273438 633.851562 88.328125 633.570312 88.328125 633.28125 C 88.328125 632.988281 88.273438 632.707031 88.160156 632.4375 C 88.050781 632.167969 87.890625 631.933594 87.683594 631.726562 C 87.476562 631.519531 87.238281 631.363281 86.96875 631.25 C 86.699219 631.140625 86.417969 631.085938 86.125 631.089844 Z M 109.320312 631.089844 C 109.03125 631.085938 108.75 631.140625 108.480469 631.253906 C 108.210938 631.363281 107.976562 631.523438 107.769531 631.726562 C 107.5625 631.933594 107.402344 632.167969 107.292969 632.4375 C 107.179688 632.707031 107.125 632.984375 107.121094 633.277344 C 107.121094 633.566406 107.175781 633.847656 107.289062 634.117188 C 107.398438 634.386719 107.558594 634.625 107.761719 634.828125 C 107.96875 635.035156 108.207031 635.195312 108.472656 635.304688 C 108.742188 635.417969 109.023438 635.472656 109.3125 635.472656 C 109.605469 635.472656 109.882812 635.417969 110.152344 635.308594 C 110.421875 635.195312 110.660156 635.039062 110.867188 634.832031 C 111.070312 634.625 111.230469 634.390625 111.339844 634.121094 C 111.453125 633.851562 111.507812 633.570312 111.507812 633.28125 C 111.507812 632.992188 111.453125 632.710938 111.34375 632.441406 C 111.230469 632.175781 111.074219 631.9375 110.867188 631.734375 C 110.664062 631.527344 110.425781 631.367188 110.160156 631.257812 C 109.890625 631.144531 109.613281 631.089844 109.320312 631.089844 Z M 132.515625 631.089844 C 132.226562 631.089844 131.949219 631.148438 131.679688 631.261719 C 131.414062 631.375 131.175781 631.535156 130.972656 631.742188 C 130.769531 631.945312 130.613281 632.183594 130.503906 632.453125 C 130.394531 632.722656 130.339844 633 130.339844 633.292969 C 130.34375 633.582031 130.398438 633.863281 130.511719 634.128906 C 130.625 634.398438 130.78125 634.632812 130.988281 634.835938 C 131.195312 635.042969 131.433594 635.199219 131.699219 635.308594 C 131.96875 635.417969 132.25 635.472656 132.539062 635.472656 C 132.828125 635.472656 133.109375 635.417969 133.375 635.304688 C 133.644531 635.195312 133.878906 635.035156 134.085938 634.828125 C 134.289062 634.625 134.449219 634.386719 134.558594 634.117188 C 134.671875 633.851562 134.726562 633.570312 134.726562 633.28125 C 134.726562 632.988281 134.671875 632.707031 134.558594 632.4375 C 134.445312 632.167969 134.285156 631.929688 134.078125 631.722656 C 133.871094 631.519531 133.632812 631.359375 133.359375 631.25 C 133.089844 631.140625 132.808594 631.085938 132.515625 631.089844 Z M 155.707031 631.089844 C 155.414062 631.089844 155.136719 631.144531 154.867188 631.253906 C 154.597656 631.367188 154.359375 631.523438 154.15625 631.730469 C 153.949219 631.9375 153.792969 632.171875 153.679688 632.441406 C 153.570312 632.710938 153.511719 632.992188 153.511719 633.28125 C 153.511719 633.570312 153.570312 633.851562 153.679688 634.121094 C 153.792969 634.390625 153.949219 634.625 154.15625 634.832031 C 154.359375 635.039062 154.597656 635.195312 154.867188 635.308594 C 155.136719 635.417969 155.414062 635.472656 155.707031 635.472656 C 155.996094 635.472656 156.277344 635.417969 156.546875 635.308594 C 156.8125 635.195312 157.050781 635.039062 157.257812 634.832031 C 157.460938 634.625 157.621094 634.390625 157.730469 634.121094 C 157.84375 633.851562 157.898438 633.570312 157.898438 633.28125 C 157.898438 632.992188 157.84375 632.710938 157.730469 632.441406 C 157.621094 632.171875 157.460938 631.9375 157.257812 631.730469 C 157.050781 631.523438 156.8125 631.367188 156.546875 631.253906 C 156.277344 631.144531 155.996094 631.089844 155.707031 631.089844 Z M 178.902344 631.089844 C 178.609375 631.089844 178.332031 631.144531 178.0625 631.253906 C 177.792969 631.367188 177.554688 631.523438 177.351562 631.730469 C 177.144531 631.9375 176.988281 632.171875 176.875 632.441406 C 176.765625 632.710938 176.707031 632.992188 176.707031 633.28125 C 176.707031 633.570312 176.765625 633.851562 176.875 634.121094 C 176.988281 634.390625 177.144531 634.625 177.351562 634.832031 C 177.554688 635.039062 177.792969 635.195312 178.0625 635.308594 C 178.332031 635.417969 178.609375 635.472656 178.902344 635.472656 C 179.191406 635.472656 179.472656 635.417969 179.742188 635.308594 C 180.007812 635.195312 180.246094 635.039062 180.453125 634.832031 C 180.65625 634.625 180.816406 634.390625 180.925781 634.121094 C 181.039062 633.851562 181.09375 633.570312 181.09375 633.28125 C 181.09375 632.992188 181.039062 632.710938 180.925781 632.441406 C 180.816406 632.171875 180.65625 631.9375 180.453125 631.730469 C 180.246094 631.523438 180.007812 631.367188 179.742188 631.253906 C 179.472656 631.144531 179.191406 631.089844 178.902344 631.089844 Z M 202.097656 635.46875 C 202.386719 635.46875 202.667969 635.414062 202.9375 635.300781 C 203.207031 635.191406 203.441406 635.03125 203.648438 634.824219 C 203.855469 634.621094 204.011719 634.382812 204.125 634.113281 C 204.234375 633.84375 204.289062 633.566406 204.289062 633.273438 C 204.289062 632.984375 204.234375 632.703125 204.121094 632.433594 C 204.011719 632.164062 203.851562 631.929688 203.644531 631.722656 C 203.4375 631.515625 203.203125 631.359375 202.933594 631.25 C 202.664062 631.136719 202.382812 631.082031 202.09375 631.082031 C 201.800781 631.082031 201.523438 631.140625 201.253906 631.25 C 200.984375 631.363281 200.75 631.523438 200.542969 631.726562 C 200.335938 631.933594 200.179688 632.171875 200.070312 632.441406 C 199.957031 632.710938 199.902344 632.988281 199.902344 633.28125 C 199.90625 633.570312 199.960938 633.851562 200.074219 634.117188 C 200.183594 634.386719 200.34375 634.621094 200.546875 634.828125 C 200.753906 635.03125 200.992188 635.191406 201.257812 635.300781 C 201.527344 635.414062 201.804688 635.46875 202.097656 635.46875 Z M -6.648438 653.519531 C -6.941406 653.519531 -7.21875 653.574219 -7.488281 653.6875 C -7.757812 653.796875 -7.996094 653.953125 -8.203125 654.160156 C -8.410156 654.363281 -8.566406 654.601562 -8.679688 654.871094 C -8.792969 655.140625 -8.847656 655.417969 -8.847656 655.710938 C -8.847656 656 -8.792969 656.28125 -8.683594 656.550781 C -8.570312 656.820312 -8.414062 657.054688 -8.207031 657.261719 C -8.003906 657.46875 -7.765625 657.625 -7.496094 657.738281 C -7.226562 657.851562 -6.949219 657.90625 -6.65625 657.90625 C -6.367188 657.90625 -6.085938 657.851562 -5.816406 657.738281 C -5.546875 657.628906 -5.3125 657.46875 -5.105469 657.265625 C -4.898438 657.058594 -4.742188 656.820312 -4.628906 656.554688 C -4.519531 656.285156 -4.460938 656.003906 -4.460938 655.714844 C -4.460938 655.421875 -4.519531 655.144531 -4.628906 654.875 C -4.738281 654.609375 -4.898438 654.371094 -5.101562 654.164062 C -5.308594 653.960938 -5.542969 653.800781 -5.8125 653.6875 C -6.078125 653.578125 -6.359375 653.523438 -6.648438 653.519531 Z M 16.546875 653.519531 C 16.253906 653.519531 15.976562 653.574219 15.707031 653.6875 C 15.4375 653.796875 15.199219 653.953125 14.992188 654.160156 C 14.785156 654.363281 14.628906 654.601562 14.515625 654.871094 C 14.402344 655.140625 14.347656 655.417969 14.347656 655.710938 C 14.347656 656 14.402344 656.28125 14.511719 656.550781 C 14.625 656.820312 14.78125 657.054688 14.988281 657.261719 C 15.191406 657.46875 15.429688 657.625 15.699219 657.738281 C 15.96875 657.851562 16.246094 657.90625 16.539062 657.90625 C 16.828125 657.90625 17.109375 657.851562 17.378906 657.738281 C 17.648438 657.628906 17.882812 657.46875 18.089844 657.265625 C 18.296875 657.058594 18.453125 656.820312 18.566406 656.554688 C 18.675781 656.285156 18.734375 656.003906 18.734375 655.714844 C 18.734375 655.421875 18.675781 655.144531 18.566406 654.875 C 18.457031 654.609375 18.296875 654.371094 18.09375 654.164062 C 17.886719 653.960938 17.652344 653.800781 17.382812 653.6875 C 17.117188 653.578125 16.835938 653.523438 16.546875 653.519531 Z M 39.734375 653.519531 C 39.445312 653.519531 39.164062 653.578125 38.894531 653.6875 C 38.628906 653.800781 38.390625 653.957031 38.183594 654.164062 C 37.980469 654.367188 37.820312 654.605469 37.710938 654.875 C 37.597656 655.144531 37.542969 655.421875 37.542969 655.714844 C 37.542969 656.003906 37.597656 656.285156 37.710938 656.550781 C 37.820312 656.820312 37.980469 657.058594 38.183594 657.265625 C 38.390625 657.46875 38.628906 657.628906 38.894531 657.738281 C 39.164062 657.851562 39.445312 657.90625 39.734375 657.90625 C 40.027344 657.90625 40.304688 657.851562 40.574219 657.738281 C 40.84375 657.628906 41.082031 657.46875 41.285156 657.265625 C 41.492188 657.058594 41.648438 656.820312 41.761719 656.550781 C 41.871094 656.285156 41.929688 656.003906 41.929688 655.714844 C 41.929688 655.421875 41.871094 655.144531 41.761719 654.875 C 41.648438 654.605469 41.492188 654.367188 41.285156 654.164062 C 41.082031 653.957031 40.84375 653.800781 40.574219 653.6875 C 40.304688 653.578125 40.027344 653.519531 39.734375 653.519531 Z M 62.941406 653.519531 C 62.652344 653.519531 62.371094 653.578125 62.101562 653.6875 C 61.835938 653.800781 61.597656 653.957031 61.390625 654.164062 C 61.1875 654.367188 61.027344 654.605469 60.917969 654.875 C 60.804688 655.144531 60.75 655.421875 60.75 655.714844 C 60.75 656.003906 60.804688 656.285156 60.917969 656.550781 C 61.027344 656.820312 61.1875 657.058594 61.390625 657.265625 C 61.597656 657.46875 61.835938 657.628906 62.101562 657.738281 C 62.371094 657.851562 62.652344 657.90625 62.941406 657.90625 C 63.234375 657.90625 63.511719 657.851562 63.78125 657.738281 C 64.050781 657.628906 64.285156 657.46875 64.492188 657.265625 C 64.699219 657.058594 64.855469 656.820312 64.96875 656.550781 C 65.078125 656.285156 65.136719 656.003906 65.136719 655.714844 C 65.136719 655.421875 65.078125 655.144531 64.96875 654.875 C 64.855469 654.605469 64.699219 654.367188 64.492188 654.164062 C 64.285156 653.957031 64.050781 653.800781 63.78125 653.6875 C 63.511719 653.578125 63.234375 653.519531 62.941406 653.519531 Z M 86.136719 653.519531 C 85.847656 653.519531 85.566406 653.578125 85.296875 653.6875 C 85.03125 653.800781 84.792969 653.957031 84.585938 654.164062 C 84.382812 654.367188 84.222656 654.605469 84.113281 654.875 C 84 655.144531 83.945312 655.421875 83.945312 655.714844 C 83.945312 656.003906 84 656.285156 84.113281 656.550781 C 84.222656 656.820312 84.382812 657.058594 84.585938 657.265625 C 84.792969 657.46875 85.03125 657.628906 85.296875 657.738281 C 85.566406 657.851562 85.847656 657.90625 86.136719 657.90625 C 86.429688 657.90625 86.707031 657.851562 86.976562 657.738281 C 87.246094 657.628906 87.480469 657.46875 87.6875 657.265625 C 87.894531 657.058594 88.050781 656.820312 88.164062 656.550781 C 88.273438 656.285156 88.328125 656.003906 88.328125 655.714844 C 88.328125 655.421875 88.273438 655.140625 88.160156 654.871094 C 88.050781 654.601562 87.890625 654.363281 87.683594 654.160156 C 87.476562 653.953125 87.238281 653.796875 86.96875 653.683594 C 86.699219 653.574219 86.417969 653.519531 86.125 653.519531 Z M 109.332031 653.519531 C 109.042969 653.519531 108.761719 653.574219 108.492188 653.6875 C 108.222656 653.796875 107.984375 653.953125 107.78125 654.160156 C 107.574219 654.363281 107.414062 654.601562 107.300781 654.871094 C 107.191406 655.140625 107.132812 655.417969 107.132812 655.710938 C 107.132812 656 107.1875 656.28125 107.300781 656.550781 C 107.410156 656.820312 107.570312 657.054688 107.773438 657.261719 C 107.980469 657.46875 108.21875 657.625 108.484375 657.738281 C 108.753906 657.851562 109.035156 657.90625 109.324219 657.90625 C 109.617188 657.90625 109.894531 657.851562 110.164062 657.738281 C 110.433594 657.628906 110.671875 657.46875 110.875 657.265625 C 111.082031 657.058594 111.242188 656.820312 111.351562 656.554688 C 111.464844 656.285156 111.519531 656.003906 111.519531 655.714844 C 111.519531 655.421875 111.464844 655.140625 111.351562 654.875 C 111.242188 654.605469 111.082031 654.367188 110.875 654.160156 C 110.667969 653.957031 110.429688 653.796875 110.164062 653.6875 C 109.894531 653.574219 109.613281 653.519531 109.320312 653.519531 Z M 132.527344 653.519531 C 132.238281 653.519531 131.957031 653.574219 131.6875 653.6875 C 131.417969 653.796875 131.179688 653.953125 130.976562 654.160156 C 130.769531 654.363281 130.609375 654.601562 130.496094 654.871094 C 130.386719 655.140625 130.328125 655.417969 130.328125 655.710938 C 130.328125 656 130.382812 656.28125 130.496094 656.550781 C 130.605469 656.820312 130.765625 657.054688 130.96875 657.261719 C 131.175781 657.46875 131.414062 657.625 131.679688 657.738281 C 131.949219 657.851562 132.230469 657.90625 132.519531 657.90625 C 132.8125 657.90625 133.089844 657.851562 133.359375 657.738281 C 133.628906 657.628906 133.867188 657.46875 134.070312 657.265625 C 134.277344 657.058594 134.4375 656.820312 134.546875 656.554688 C 134.660156 656.285156 134.714844 656.003906 134.714844 655.714844 C 134.714844 655.421875 134.660156 655.140625 134.546875 654.875 C 134.4375 654.605469 134.277344 654.367188 134.070312 654.160156 C 133.863281 653.957031 133.625 653.796875 133.359375 653.6875 C 133.089844 653.574219 132.808594 653.519531 132.515625 653.519531 Z M 155.71875 653.519531 C 155.425781 653.519531 155.148438 653.578125 154.878906 653.6875 C 154.609375 653.800781 154.371094 653.957031 154.167969 654.164062 C 153.960938 654.367188 153.804688 654.605469 153.691406 654.875 C 153.582031 655.144531 153.523438 655.421875 153.523438 655.714844 C 153.523438 656.003906 153.582031 656.285156 153.691406 656.550781 C 153.804688 656.820312 153.960938 657.058594 154.167969 657.265625 C 154.371094 657.46875 154.609375 657.628906 154.878906 657.738281 C 155.148438 657.851562 155.425781 657.90625 155.71875 657.90625 C 156.007812 657.90625 156.289062 657.851562 156.554688 657.738281 C 156.824219 657.628906 157.0625 657.46875 157.269531 657.265625 C 157.472656 657.058594 157.632812 656.820312 157.742188 656.550781 C 157.855469 656.285156 157.910156 656.003906 157.910156 655.714844 C 157.910156 655.421875 157.855469 655.140625 157.742188 654.871094 C 157.628906 654.601562 157.472656 654.363281 157.265625 654.160156 C 157.058594 653.953125 156.820312 653.796875 156.546875 653.683594 C 156.277344 653.574219 155.996094 653.519531 155.707031 653.519531 Z M 178.914062 653.519531 C 178.621094 653.519531 178.34375 653.578125 178.074219 653.6875 C 177.804688 653.800781 177.566406 653.957031 177.363281 654.164062 C 177.15625 654.367188 177 654.605469 176.886719 654.875 C 176.777344 655.144531 176.71875 655.421875 176.71875 655.714844 C 176.71875 656.003906 176.777344 656.285156 176.886719 656.550781 C 177 656.820312 177.15625 657.058594 177.363281 657.265625 C 177.566406 657.46875 177.804688 657.628906 178.074219 657.738281 C 178.34375 657.851562 178.621094 657.90625 178.914062 657.90625 C 179.203125 657.90625 179.484375 657.851562 179.75 657.738281 C 180.019531 657.628906 180.257812 657.46875 180.464844 657.265625 C 180.667969 657.058594 180.828125 656.820312 180.9375 656.550781 C 181.050781 656.285156 181.105469 656.003906 181.105469 655.714844 C 181.105469 655.421875 181.050781 655.140625 180.9375 654.871094 C 180.824219 654.601562 180.667969 654.363281 180.460938 654.160156 C 180.253906 653.953125 180.015625 653.796875 179.742188 653.683594 C 179.472656 653.574219 179.191406 653.519531 178.902344 653.519531 Z M 202.109375 653.519531 C 201.816406 653.515625 201.535156 653.566406 201.265625 653.675781 C 200.992188 653.78125 200.753906 653.9375 200.546875 654.140625 C 200.335938 654.34375 200.175781 654.582031 200.058594 654.847656 C 199.945312 655.117188 199.886719 655.394531 199.882812 655.6875 C 199.878906 655.976562 199.929688 656.257812 200.039062 656.53125 C 200.148438 656.800781 200.304688 657.039062 200.507812 657.246094 C 200.710938 657.457031 200.949219 657.617188 201.214844 657.730469 C 201.484375 657.84375 201.765625 657.902344 202.054688 657.90625 C 202.347656 657.910156 202.628906 657.855469 202.898438 657.746094 C 203.167969 657.636719 203.40625 657.480469 203.613281 657.273438 C 203.820312 657.070312 203.980469 656.832031 204.09375 656.566406 C 204.207031 656.296875 204.265625 656.015625 204.265625 655.726562 C 204.269531 655.433594 204.214844 655.15625 204.105469 654.886719 C 203.996094 654.617188 203.839844 654.382812 203.636719 654.175781 C 203.433594 653.96875 203.199219 653.808594 202.929688 653.695312 C 202.664062 653.582031 202.386719 653.523438 202.097656 653.519531 Z M -6.648438 675.980469 C -6.941406 675.980469 -7.21875 676.035156 -7.488281 676.144531 C -7.757812 676.257812 -7.992188 676.414062 -8.199219 676.617188 C -8.40625 676.820312 -8.566406 677.058594 -8.675781 677.324219 C -8.789062 677.59375 -8.847656 677.871094 -8.847656 678.164062 C -8.847656 678.453125 -8.796875 678.734375 -8.683594 679 C -8.574219 679.269531 -8.417969 679.507812 -8.214844 679.714844 C -8.011719 679.921875 -7.777344 680.082031 -7.507812 680.195312 C -7.242188 680.308594 -6.960938 680.363281 -6.671875 680.367188 C -6.382812 680.367188 -6.101562 680.316406 -5.832031 680.207031 C -5.5625 680.097656 -5.324219 679.941406 -5.117188 679.738281 C -4.910156 679.535156 -4.75 679.300781 -4.636719 679.03125 C -4.523438 678.765625 -4.464844 678.488281 -4.460938 678.195312 C -4.460938 677.90625 -4.511719 677.621094 -4.621094 677.351562 C -4.730469 677.082031 -4.890625 676.839844 -5.09375 676.632812 C -5.300781 676.425781 -5.539062 676.265625 -5.808594 676.152344 C -6.078125 676.039062 -6.355469 675.980469 -6.648438 675.980469 Z M 16.546875 675.980469 C 16.253906 675.980469 15.976562 676.035156 15.707031 676.148438 C 15.4375 676.257812 15.199219 676.414062 14.992188 676.621094 C 14.785156 676.828125 14.628906 677.0625 14.515625 677.332031 C 14.402344 677.601562 14.347656 677.882812 14.347656 678.171875 C 14.347656 678.464844 14.402344 678.742188 14.515625 679.011719 C 14.625 679.28125 14.785156 679.519531 14.988281 679.726562 C 15.195312 679.929688 15.433594 680.089844 15.703125 680.199219 C 15.972656 680.3125 16.25 680.367188 16.542969 680.367188 C 16.832031 680.367188 17.113281 680.3125 17.382812 680.199219 C 17.652344 680.085938 17.886719 679.929688 18.09375 679.722656 C 18.300781 679.515625 18.457031 679.277344 18.566406 679.007812 C 18.679688 678.738281 18.734375 678.460938 18.734375 678.167969 C 18.730469 677.878906 18.675781 677.601562 18.566406 677.332031 C 18.453125 677.066406 18.296875 676.828125 18.089844 676.625 C 17.886719 676.417969 17.648438 676.261719 17.382812 676.148438 C 17.113281 676.039062 16.835938 675.980469 16.546875 675.980469 Z M 39.734375 675.980469 C 39.445312 675.980469 39.167969 676.035156 38.898438 676.148438 C 38.628906 676.257812 38.394531 676.417969 38.1875 676.621094 C 37.980469 676.824219 37.824219 677.0625 37.710938 677.328125 C 37.601562 677.597656 37.542969 677.875 37.542969 678.167969 C 37.542969 678.457031 37.597656 678.734375 37.707031 679.003906 C 37.816406 679.273438 37.972656 679.511719 38.175781 679.714844 C 38.382812 679.921875 38.617188 680.082031 38.882812 680.195312 C 39.152344 680.308594 39.429688 680.363281 39.722656 680.367188 C 40.011719 680.367188 40.289062 680.316406 40.558594 680.207031 C 40.828125 680.097656 41.066406 679.941406 41.273438 679.738281 C 41.480469 679.535156 41.640625 679.300781 41.753906 679.03125 C 41.867188 678.765625 41.925781 678.488281 41.929688 678.195312 C 41.929688 677.902344 41.878906 677.621094 41.769531 677.351562 C 41.65625 677.078125 41.5 676.839844 41.292969 676.632812 C 41.089844 676.421875 40.851562 676.261719 40.578125 676.152344 C 40.308594 676.039062 40.027344 675.980469 39.734375 675.980469 Z M 62.929688 675.980469 C 62.640625 675.980469 62.359375 676.035156 62.089844 676.148438 C 61.824219 676.261719 61.585938 676.417969 61.378906 676.625 C 61.175781 676.832031 61.015625 677.066406 60.90625 677.335938 C 60.792969 677.605469 60.738281 677.886719 60.738281 678.175781 C 60.738281 678.46875 60.792969 678.746094 60.90625 679.015625 C 61.015625 679.285156 61.175781 679.519531 61.382812 679.726562 C 61.589844 679.933594 61.824219 680.089844 62.09375 680.203125 C 62.363281 680.3125 62.644531 680.367188 62.933594 680.367188 C 63.226562 680.367188 63.503906 680.308594 63.773438 680.199219 C 64.042969 680.085938 64.28125 679.925781 64.484375 679.722656 C 64.691406 679.515625 64.847656 679.277344 64.957031 679.007812 C 65.070312 678.738281 65.125 678.460938 65.125 678.167969 C 65.121094 677.878906 65.066406 677.601562 64.957031 677.332031 C 64.84375 677.066406 64.6875 676.832031 64.484375 676.625 C 64.277344 676.421875 64.042969 676.261719 63.777344 676.152344 C 63.507812 676.039062 63.230469 675.984375 62.941406 675.980469 Z M 86.125 675.980469 C 85.835938 675.980469 85.554688 676.035156 85.285156 676.148438 C 85.019531 676.261719 84.78125 676.417969 84.574219 676.625 C 84.371094 676.832031 84.210938 677.066406 84.101562 677.335938 C 83.988281 677.605469 83.933594 677.886719 83.933594 678.175781 C 83.933594 678.46875 83.988281 678.746094 84.101562 679.015625 C 84.210938 679.285156 84.371094 679.519531 84.578125 679.726562 C 84.785156 679.933594 85.019531 680.089844 85.289062 680.203125 C 85.558594 680.3125 85.839844 680.367188 86.128906 680.367188 C 86.421875 680.367188 86.699219 680.308594 86.96875 680.199219 C 87.238281 680.085938 87.472656 679.925781 87.679688 679.722656 C 87.886719 679.515625 88.042969 679.277344 88.152344 679.007812 C 88.265625 678.738281 88.320312 678.460938 88.320312 678.167969 C 88.316406 677.878906 88.261719 677.597656 88.148438 677.332031 C 88.039062 677.0625 87.878906 676.828125 87.675781 676.621094 C 87.46875 676.417969 87.230469 676.257812 86.964844 676.148438 C 86.695312 676.035156 86.417969 675.980469 86.125 675.980469 Z M 109.320312 675.980469 C 109.03125 675.980469 108.75 676.035156 108.480469 676.148438 C 108.210938 676.257812 107.972656 676.414062 107.769531 676.621094 C 107.5625 676.828125 107.402344 677.0625 107.289062 677.332031 C 107.179688 677.601562 107.125 677.882812 107.121094 678.171875 C 107.121094 678.464844 107.179688 678.742188 107.289062 679.011719 C 107.402344 679.28125 107.558594 679.519531 107.765625 679.726562 C 107.972656 679.929688 108.207031 680.089844 108.476562 680.199219 C 108.746094 680.3125 109.027344 680.367188 109.316406 680.367188 C 109.609375 680.367188 109.886719 680.3125 110.15625 680.199219 C 110.425781 680.085938 110.664062 679.929688 110.867188 679.722656 C 111.074219 679.515625 111.234375 679.277344 111.34375 679.007812 C 111.453125 678.738281 111.507812 678.460938 111.507812 678.167969 C 111.507812 677.878906 111.453125 677.601562 111.339844 677.332031 C 111.230469 677.066406 111.070312 676.828125 110.867188 676.625 C 110.660156 676.417969 110.425781 676.261719 110.15625 676.148438 C 109.890625 676.039062 109.609375 675.980469 109.320312 675.980469 Z M 132.515625 675.980469 C 132.226562 675.984375 131.949219 676.039062 131.683594 676.152344 C 131.414062 676.265625 131.179688 676.425781 130.976562 676.632812 C 130.773438 676.835938 130.613281 677.074219 130.503906 677.339844 C 130.394531 677.609375 130.339844 677.886719 130.339844 678.179688 C 130.339844 678.46875 130.398438 678.746094 130.507812 679.015625 C 130.617188 679.28125 130.777344 679.519531 130.980469 679.722656 C 131.1875 679.929688 131.421875 680.085938 131.6875 680.199219 C 131.957031 680.308594 132.234375 680.367188 132.523438 680.367188 C 132.8125 680.367188 133.09375 680.3125 133.359375 680.203125 C 133.628906 680.09375 133.867188 679.9375 134.074219 679.734375 C 134.277344 679.53125 134.4375 679.296875 134.550781 679.03125 C 134.664062 678.765625 134.722656 678.484375 134.726562 678.195312 C 134.730469 677.902344 134.675781 677.617188 134.5625 677.347656 C 134.453125 677.074219 134.292969 676.832031 134.085938 676.625 C 133.878906 676.417969 133.636719 676.257812 133.367188 676.144531 C 133.09375 676.035156 132.8125 675.980469 132.515625 675.980469 Z M 155.707031 675.980469 C 155.414062 675.980469 155.136719 676.035156 154.867188 676.148438 C 154.597656 676.261719 154.359375 676.417969 154.15625 676.625 C 153.949219 676.832031 153.789062 677.066406 153.679688 677.335938 C 153.570312 677.605469 153.511719 677.886719 153.511719 678.175781 C 153.515625 678.46875 153.570312 678.746094 153.679688 679.015625 C 153.792969 679.285156 153.953125 679.519531 154.15625 679.726562 C 154.363281 679.933594 154.601562 680.089844 154.871094 680.203125 C 155.140625 680.3125 155.417969 680.367188 155.710938 680.367188 C 156 680.367188 156.28125 680.308594 156.550781 680.199219 C 156.816406 680.085938 157.054688 679.925781 157.261719 679.722656 C 157.464844 679.515625 157.625 679.277344 157.734375 679.007812 C 157.84375 678.738281 157.898438 678.460938 157.898438 678.167969 C 157.898438 677.878906 157.84375 677.597656 157.730469 677.332031 C 157.617188 677.0625 157.460938 676.828125 157.253906 676.621094 C 157.050781 676.417969 156.8125 676.257812 156.542969 676.148438 C 156.277344 676.035156 155.996094 675.980469 155.707031 675.980469 Z M 178.902344 675.980469 C 178.609375 675.980469 178.332031 676.035156 178.0625 676.148438 C 177.792969 676.261719 177.554688 676.417969 177.351562 676.625 C 177.144531 676.832031 176.984375 677.066406 176.875 677.335938 C 176.765625 677.605469 176.707031 677.886719 176.707031 678.175781 C 176.707031 678.46875 176.765625 678.746094 176.875 679.015625 C 176.988281 679.285156 177.148438 679.519531 177.351562 679.726562 C 177.558594 679.933594 177.796875 680.089844 178.066406 680.203125 C 178.335938 680.3125 178.613281 680.367188 178.90625 680.367188 C 179.195312 680.367188 179.476562 680.308594 179.746094 680.199219 C 180.011719 680.085938 180.25 679.925781 180.457031 679.722656 C 180.660156 679.515625 180.820312 679.277344 180.929688 679.007812 C 181.039062 678.738281 181.09375 678.460938 181.09375 678.167969 C 181.09375 677.878906 181.039062 677.597656 180.925781 677.332031 C 180.8125 677.0625 180.65625 676.828125 180.449219 676.621094 C 180.246094 676.417969 180.007812 676.257812 179.738281 676.148438 C 179.472656 676.035156 179.191406 675.980469 178.902344 675.980469 Z M 202.097656 675.980469 C 201.804688 675.976562 201.527344 676.03125 201.257812 676.140625 C 200.984375 676.25 200.746094 676.402344 200.539062 676.609375 C 200.332031 676.8125 200.171875 677.046875 200.058594 677.3125 C 199.941406 677.582031 199.882812 677.859375 199.882812 678.152344 C 199.878906 678.441406 199.929688 678.722656 200.039062 678.992188 C 200.148438 679.261719 200.304688 679.5 200.507812 679.707031 C 200.710938 679.917969 200.945312 680.078125 201.214844 680.191406 C 201.480469 680.304688 201.761719 680.363281 202.050781 680.367188 C 202.34375 680.371094 202.621094 680.316406 202.894531 680.207031 C 203.164062 680.101562 203.402344 679.945312 203.609375 679.742188 C 203.816406 679.535156 203.976562 679.300781 204.089844 679.035156 C 204.207031 678.765625 204.265625 678.488281 204.265625 678.195312 C 204.269531 677.90625 204.21875 677.625 204.109375 677.355469 C 204 677.085938 203.84375 676.847656 203.640625 676.640625 C 203.4375 676.433594 203.203125 676.269531 202.933594 676.15625 C 202.667969 676.042969 202.386719 675.984375 202.097656 675.980469 Z M -6.648438 698.414062 C -6.941406 698.414062 -7.21875 698.46875 -7.488281 698.578125 C -7.757812 698.6875 -7.992188 698.847656 -8.199219 699.050781 C -8.40625 699.253906 -8.566406 699.492188 -8.675781 699.757812 C -8.789062 700.027344 -8.847656 700.304688 -8.847656 700.59375 C -8.847656 700.886719 -8.796875 701.164062 -8.683594 701.433594 C -8.574219 701.703125 -8.417969 701.941406 -8.214844 702.148438 C -8.011719 702.355469 -7.777344 702.515625 -7.507812 702.625 C -7.242188 702.738281 -6.960938 702.796875 -6.671875 702.800781 C -6.382812 702.800781 -6.101562 702.75 -5.832031 702.640625 C -5.5625 702.53125 -5.324219 702.375 -5.117188 702.171875 C -4.910156 701.96875 -4.75 701.730469 -4.636719 701.464844 C -4.523438 701.199219 -4.464844 700.917969 -4.460938 700.628906 C -4.460938 700.335938 -4.515625 700.058594 -4.625 699.789062 C -4.734375 699.519531 -4.894531 699.28125 -5.097656 699.074219 C -5.304688 698.867188 -5.539062 698.707031 -5.808594 698.59375 C -6.078125 698.484375 -6.359375 698.425781 -6.648438 698.425781 Z M 16.546875 698.414062 C 16.253906 698.414062 15.976562 698.46875 15.707031 698.578125 C 15.4375 698.691406 15.199219 698.847656 14.992188 699.054688 C 14.785156 699.257812 14.628906 699.496094 14.515625 699.765625 C 14.402344 700.03125 14.347656 700.3125 14.347656 700.601562 C 14.347656 700.894531 14.402344 701.175781 14.511719 701.441406 C 14.625 701.710938 14.78125 701.949219 14.988281 702.15625 C 15.191406 702.359375 15.429688 702.519531 15.699219 702.632812 C 15.96875 702.742188 16.246094 702.800781 16.539062 702.800781 C 16.828125 702.800781 17.109375 702.746094 17.378906 702.632812 C 17.648438 702.523438 17.882812 702.363281 18.089844 702.15625 C 18.296875 701.953125 18.453125 701.714844 18.566406 701.445312 C 18.675781 701.175781 18.734375 700.898438 18.734375 700.605469 C 18.730469 700.316406 18.675781 700.039062 18.5625 699.773438 C 18.453125 699.503906 18.292969 699.269531 18.089844 699.066406 C 17.882812 698.859375 17.648438 698.703125 17.378906 698.59375 C 17.113281 698.480469 16.835938 698.425781 16.546875 698.425781 Z M 39.734375 698.414062 C 39.445312 698.414062 39.167969 698.46875 38.898438 698.582031 C 38.628906 698.691406 38.394531 698.847656 38.1875 699.054688 C 37.980469 699.257812 37.824219 699.496094 37.710938 699.761719 C 37.601562 700.03125 37.542969 700.308594 37.542969 700.597656 C 37.542969 700.890625 37.597656 701.167969 37.707031 701.4375 C 37.816406 701.707031 37.972656 701.941406 38.175781 702.148438 C 38.382812 702.355469 38.617188 702.515625 38.882812 702.628906 C 39.152344 702.738281 39.429688 702.796875 39.722656 702.800781 C 40.011719 702.800781 40.289062 702.746094 40.558594 702.640625 C 40.828125 702.53125 41.066406 702.375 41.273438 702.171875 C 41.480469 701.96875 41.640625 701.730469 41.753906 701.464844 C 41.867188 701.199219 41.925781 700.917969 41.929688 700.628906 C 41.929688 700.335938 41.875 700.054688 41.765625 699.785156 C 41.652344 699.515625 41.496094 699.277344 41.289062 699.070312 C 41.085938 698.863281 40.847656 698.707031 40.578125 698.59375 C 40.308594 698.480469 40.027344 698.425781 39.734375 698.425781 Z M 62.929688 698.414062 C 62.640625 698.414062 62.359375 698.46875 62.089844 698.582031 C 61.824219 698.691406 61.585938 698.851562 61.378906 699.054688 C 61.175781 699.261719 61.015625 699.5 60.90625 699.769531 C 60.792969 700.035156 60.738281 700.316406 60.738281 700.605469 C 60.738281 700.898438 60.792969 701.175781 60.90625 701.445312 C 61.015625 701.714844 61.175781 701.953125 61.378906 702.15625 C 61.585938 702.363281 61.824219 702.519531 62.089844 702.632812 C 62.359375 702.742188 62.640625 702.800781 62.929688 702.800781 C 63.222656 702.800781 63.5 702.742188 63.769531 702.632812 C 64.039062 702.519531 64.277344 702.363281 64.480469 702.15625 C 64.6875 701.953125 64.84375 701.714844 64.957031 701.445312 C 65.066406 701.175781 65.125 700.898438 65.125 700.605469 C 65.121094 700.316406 65.066406 700.039062 64.953125 699.773438 C 64.84375 699.507812 64.6875 699.273438 64.480469 699.066406 C 64.277344 698.863281 64.042969 698.707031 63.773438 698.59375 C 63.507812 698.484375 63.230469 698.425781 62.941406 698.425781 Z M 86.125 698.414062 C 85.835938 698.414062 85.554688 698.46875 85.285156 698.582031 C 85.019531 698.691406 84.78125 698.851562 84.574219 699.054688 C 84.371094 699.261719 84.210938 699.5 84.101562 699.769531 C 83.988281 700.035156 83.933594 700.316406 83.933594 700.605469 C 83.933594 700.898438 83.988281 701.175781 84.101562 701.445312 C 84.210938 701.714844 84.371094 701.953125 84.574219 702.15625 C 84.78125 702.363281 85.019531 702.519531 85.285156 702.632812 C 85.554688 702.742188 85.835938 702.800781 86.125 702.800781 C 86.417969 702.800781 86.695312 702.742188 86.964844 702.632812 C 87.234375 702.519531 87.472656 702.363281 87.675781 702.15625 C 87.882812 701.953125 88.039062 701.714844 88.152344 701.445312 C 88.261719 701.175781 88.320312 700.898438 88.320312 700.605469 C 88.316406 700.316406 88.261719 700.039062 88.148438 699.769531 C 88.035156 699.503906 87.878906 699.269531 87.671875 699.0625 C 87.46875 698.859375 87.230469 698.703125 86.960938 698.589844 C 86.695312 698.480469 86.414062 698.425781 86.125 698.425781 Z M 109.320312 698.414062 C 109.03125 698.414062 108.75 698.46875 108.480469 698.578125 C 108.210938 698.691406 107.976562 698.847656 107.769531 699.054688 C 107.5625 699.257812 107.402344 699.496094 107.292969 699.765625 C 107.179688 700.03125 107.125 700.3125 107.121094 700.601562 C 107.121094 700.894531 107.175781 701.175781 107.289062 701.441406 C 107.398438 701.710938 107.558594 701.949219 107.761719 702.15625 C 107.96875 702.359375 108.207031 702.519531 108.472656 702.632812 C 108.742188 702.742188 109.023438 702.800781 109.3125 702.800781 C 109.605469 702.800781 109.882812 702.746094 110.152344 702.632812 C 110.421875 702.523438 110.660156 702.363281 110.867188 702.15625 C 111.070312 701.953125 111.230469 701.714844 111.339844 701.445312 C 111.453125 701.175781 111.507812 700.898438 111.507812 700.605469 C 111.507812 700.316406 111.449219 700.039062 111.339844 699.773438 C 111.226562 699.503906 111.070312 699.269531 110.863281 699.066406 C 110.660156 698.859375 110.421875 698.703125 110.15625 698.59375 C 109.890625 698.480469 109.609375 698.425781 109.320312 698.425781 Z M 132.515625 698.414062 C 132.226562 698.417969 131.949219 698.472656 131.683594 698.585938 C 131.414062 698.699219 131.179688 698.859375 130.976562 699.0625 C 130.773438 699.269531 130.613281 699.507812 130.503906 699.773438 C 130.394531 700.042969 130.339844 700.320312 130.339844 700.609375 C 130.339844 700.898438 130.398438 701.179688 130.507812 701.445312 C 130.617188 701.714844 130.777344 701.949219 130.980469 702.15625 C 131.1875 702.359375 131.421875 702.519531 131.6875 702.628906 C 131.957031 702.742188 132.234375 702.796875 132.523438 702.800781 C 132.8125 702.800781 133.09375 702.746094 133.359375 702.636719 C 133.628906 702.527344 133.867188 702.371094 134.074219 702.167969 C 134.277344 701.964844 134.4375 701.730469 134.550781 701.464844 C 134.664062 701.195312 134.722656 700.917969 134.726562 700.628906 C 134.726562 700.335938 134.671875 700.054688 134.5625 699.78125 C 134.449219 699.511719 134.289062 699.273438 134.082031 699.066406 C 133.875 698.859375 133.636719 698.699219 133.363281 698.589844 C 133.09375 698.476562 132.808594 698.421875 132.515625 698.425781 Z M 155.707031 698.414062 C 155.414062 698.414062 155.136719 698.46875 154.867188 698.582031 C 154.597656 698.691406 154.359375 698.851562 154.15625 699.054688 C 153.949219 699.261719 153.792969 699.5 153.679688 699.769531 C 153.570312 700.035156 153.511719 700.316406 153.511719 700.605469 C 153.511719 700.898438 153.570312 701.175781 153.679688 701.445312 C 153.792969 701.714844 153.949219 701.953125 154.15625 702.15625 C 154.359375 702.363281 154.597656 702.519531 154.867188 702.632812 C 155.136719 702.742188 155.414062 702.800781 155.707031 702.800781 C 155.996094 702.800781 156.277344 702.742188 156.546875 702.632812 C 156.8125 702.519531 157.050781 702.363281 157.257812 702.15625 C 157.460938 701.953125 157.621094 701.714844 157.730469 701.445312 C 157.84375 701.175781 157.898438 700.898438 157.898438 700.605469 C 157.898438 700.316406 157.839844 700.039062 157.730469 699.769531 C 157.617188 699.503906 157.457031 699.269531 157.253906 699.0625 C 157.046875 698.859375 156.8125 698.703125 156.542969 698.589844 C 156.273438 698.480469 155.996094 698.425781 155.707031 698.425781 Z M 178.902344 698.414062 C 178.609375 698.414062 178.332031 698.46875 178.0625 698.582031 C 177.792969 698.691406 177.554688 698.851562 177.351562 699.054688 C 177.144531 699.261719 176.988281 699.5 176.875 699.769531 C 176.765625 700.035156 176.707031 700.316406 176.707031 700.605469 C 176.707031 700.898438 176.765625 701.175781 176.875 701.445312 C 176.988281 701.714844 177.144531 701.953125 177.351562 702.15625 C 177.554688 702.363281 177.792969 702.519531 178.0625 702.632812 C 178.332031 702.742188 178.609375 702.800781 178.902344 702.800781 C 179.191406 702.800781 179.472656 702.742188 179.742188 702.632812 C 180.007812 702.519531 180.246094 702.363281 180.453125 702.15625 C 180.65625 701.953125 180.816406 701.714844 180.925781 701.445312 C 181.039062 701.175781 181.09375 700.898438 181.09375 700.605469 C 181.09375 700.316406 181.035156 700.039062 180.925781 699.769531 C 180.8125 699.503906 180.652344 699.269531 180.449219 699.0625 C 180.242188 698.859375 180.007812 698.703125 179.738281 698.589844 C 179.46875 698.480469 179.191406 698.425781 178.902344 698.425781 Z M 202.097656 698.414062 C 201.804688 698.410156 201.527344 698.464844 201.257812 698.574219 C 200.984375 698.679688 200.746094 698.835938 200.539062 699.039062 C 200.332031 699.242188 200.171875 699.480469 200.058594 699.746094 C 199.941406 700.015625 199.882812 700.292969 199.882812 700.585938 C 199.878906 700.875 199.929688 701.15625 200.039062 701.425781 C 200.148438 701.695312 200.304688 701.933594 200.507812 702.140625 C 200.710938 702.347656 200.945312 702.507812 201.214844 702.625 C 201.480469 702.738281 201.761719 702.796875 202.050781 702.800781 C 202.34375 702.800781 202.621094 702.75 202.894531 702.640625 C 203.164062 702.53125 203.402344 702.375 203.609375 702.171875 C 203.816406 701.96875 203.976562 701.734375 204.089844 701.464844 C 204.207031 701.199219 204.265625 700.917969 204.265625 700.628906 C 204.269531 700.339844 204.214844 700.058594 204.105469 699.792969 C 203.996094 699.523438 203.839844 699.285156 203.636719 699.078125 C 203.433594 698.871094 203.199219 698.710938 202.929688 698.597656 C 202.664062 698.484375 202.386719 698.429688 202.097656 698.425781 Z M -6.648438 720.875 C -6.941406 720.875 -7.21875 720.929688 -7.488281 721.039062 C -7.757812 721.152344 -7.996094 721.308594 -8.203125 721.515625 C -8.410156 721.71875 -8.566406 721.957031 -8.679688 722.226562 C -8.792969 722.496094 -8.847656 722.773438 -8.847656 723.066406 C -8.847656 723.355469 -8.792969 723.636719 -8.679688 723.90625 C -8.570312 724.175781 -8.410156 724.410156 -8.207031 724.617188 C -8 724.824219 -7.761719 724.980469 -7.492188 725.09375 C -7.222656 725.203125 -6.945312 725.261719 -6.652344 725.261719 C -6.363281 725.261719 -6.082031 725.203125 -5.8125 725.09375 C -5.542969 724.980469 -5.308594 724.820312 -5.101562 724.613281 C -4.894531 724.410156 -4.738281 724.171875 -4.628906 723.902344 C -4.515625 723.632812 -4.460938 723.351562 -4.460938 723.0625 C -4.464844 722.773438 -4.519531 722.492188 -4.628906 722.226562 C -4.742188 721.957031 -4.898438 721.722656 -5.105469 721.515625 C -5.308594 721.3125 -5.546875 721.152344 -5.8125 721.042969 C -6.082031 720.929688 -6.359375 720.875 -6.648438 720.875 Z M 16.546875 720.875 C 16.253906 720.875 15.976562 720.929688 15.707031 721.039062 C 15.4375 721.152344 15.199219 721.308594 14.992188 721.515625 C 14.785156 721.71875 14.628906 721.957031 14.515625 722.226562 C 14.402344 722.496094 14.347656 722.773438 14.347656 723.066406 C 14.347656 723.355469 14.402344 723.636719 14.515625 723.90625 C 14.625 724.175781 14.785156 724.410156 14.988281 724.617188 C 15.195312 724.824219 15.433594 724.980469 15.703125 725.09375 C 15.972656 725.203125 16.25 725.261719 16.542969 725.261719 C 16.832031 725.261719 17.113281 725.203125 17.382812 725.09375 C 17.652344 724.980469 17.886719 724.820312 18.09375 724.613281 C 18.300781 724.410156 18.457031 724.171875 18.566406 723.902344 C 18.679688 723.632812 18.734375 723.351562 18.734375 723.0625 C 18.730469 722.773438 18.675781 722.492188 18.566406 722.226562 C 18.453125 721.957031 18.296875 721.722656 18.089844 721.515625 C 17.886719 721.3125 17.648438 721.152344 17.382812 721.042969 C 17.113281 720.929688 16.835938 720.875 16.546875 720.875 Z M 39.734375 720.875 C 39.445312 720.875 39.164062 720.929688 38.894531 721.042969 C 38.628906 721.152344 38.390625 721.3125 38.183594 721.515625 C 37.980469 721.722656 37.820312 721.960938 37.710938 722.230469 C 37.597656 722.5 37.542969 722.777344 37.542969 723.070312 C 37.542969 723.359375 37.597656 723.640625 37.710938 723.910156 C 37.820312 724.175781 37.980469 724.414062 38.1875 724.621094 C 38.394531 724.824219 38.628906 724.984375 38.898438 725.09375 C 39.167969 725.207031 39.449219 725.261719 39.738281 725.261719 C 40.03125 725.257812 40.308594 725.203125 40.578125 725.089844 C 40.847656 724.980469 41.085938 724.820312 41.289062 724.613281 C 41.496094 724.410156 41.652344 724.171875 41.761719 723.902344 C 41.875 723.632812 41.929688 723.351562 41.929688 723.0625 C 41.925781 722.769531 41.871094 722.492188 41.761719 722.222656 C 41.648438 721.957031 41.488281 721.71875 41.285156 721.515625 C 41.078125 721.308594 40.839844 721.152344 40.574219 721.039062 C 40.304688 720.929688 40.027344 720.875 39.734375 720.875 Z M 62.929688 720.875 C 62.640625 720.875 62.359375 720.929688 62.089844 721.042969 C 61.824219 721.152344 61.585938 721.3125 61.378906 721.515625 C 61.175781 721.722656 61.015625 721.960938 60.90625 722.230469 C 60.792969 722.5 60.738281 722.777344 60.738281 723.070312 C 60.738281 723.359375 60.792969 723.640625 60.90625 723.910156 C 61.015625 724.175781 61.175781 724.414062 61.382812 724.621094 C 61.589844 724.824219 61.824219 724.984375 62.09375 725.09375 C 62.363281 725.207031 62.644531 725.261719 62.933594 725.261719 C 63.226562 725.257812 63.503906 725.203125 63.773438 725.089844 C 64.042969 724.980469 64.28125 724.820312 64.484375 724.613281 C 64.691406 724.410156 64.847656 724.171875 64.957031 723.902344 C 65.070312 723.632812 65.125 723.351562 65.125 723.0625 C 65.121094 722.773438 65.066406 722.492188 64.957031 722.226562 C 64.84375 721.960938 64.6875 721.722656 64.484375 721.519531 C 64.277344 721.3125 64.042969 721.15625 63.777344 721.042969 C 63.507812 720.933594 63.230469 720.875 62.941406 720.875 Z M 86.125 720.875 C 85.835938 720.875 85.554688 720.929688 85.285156 721.042969 C 85.019531 721.152344 84.78125 721.3125 84.574219 721.515625 C 84.371094 721.722656 84.210938 721.960938 84.101562 722.230469 C 83.988281 722.5 83.933594 722.777344 83.933594 723.070312 C 83.933594 723.359375 83.988281 723.640625 84.101562 723.910156 C 84.210938 724.175781 84.371094 724.414062 84.578125 724.621094 C 84.785156 724.824219 85.019531 724.984375 85.289062 725.09375 C 85.558594 725.207031 85.839844 725.261719 86.128906 725.261719 C 86.421875 725.257812 86.699219 725.203125 86.96875 725.089844 C 87.238281 724.980469 87.476562 724.820312 87.679688 724.613281 C 87.886719 724.410156 88.042969 724.171875 88.152344 723.902344 C 88.265625 723.632812 88.320312 723.351562 88.320312 723.0625 C 88.316406 722.769531 88.261719 722.492188 88.148438 722.222656 C 88.039062 721.957031 87.878906 721.71875 87.675781 721.515625 C 87.46875 721.308594 87.230469 721.152344 86.964844 721.039062 C 86.695312 720.929688 86.417969 720.875 86.125 720.875 Z M 109.320312 720.875 C 109.03125 720.875 108.75 720.929688 108.480469 721.039062 C 108.210938 721.152344 107.972656 721.308594 107.769531 721.515625 C 107.5625 721.71875 107.402344 721.957031 107.289062 722.226562 C 107.179688 722.496094 107.125 722.773438 107.121094 723.066406 C 107.121094 723.355469 107.179688 723.636719 107.289062 723.90625 C 107.402344 724.175781 107.558594 724.410156 107.765625 724.617188 C 107.972656 724.824219 108.207031 724.980469 108.476562 725.09375 C 108.746094 725.203125 109.027344 725.261719 109.316406 725.261719 C 109.609375 725.261719 109.886719 725.203125 110.15625 725.09375 C 110.425781 724.980469 110.664062 724.820312 110.867188 724.613281 C 111.074219 724.410156 111.234375 724.171875 111.34375 723.902344 C 111.453125 723.632812 111.507812 723.351562 111.507812 723.0625 C 111.507812 722.773438 111.453125 722.492188 111.339844 722.226562 C 111.230469 721.957031 111.070312 721.722656 110.867188 721.515625 C 110.660156 721.3125 110.425781 721.152344 110.15625 721.042969 C 109.890625 720.929688 109.609375 720.875 109.320312 720.875 Z M 132.515625 720.875 C 132.226562 720.875 131.945312 720.933594 131.679688 721.046875 C 131.410156 721.160156 131.175781 721.320312 130.972656 721.527344 C 130.769531 721.734375 130.613281 721.972656 130.503906 722.242188 C 130.394531 722.511719 130.339844 722.789062 130.339844 723.082031 C 130.34375 723.371094 130.398438 723.648438 130.511719 723.917969 C 130.625 724.183594 130.785156 724.421875 130.992188 724.625 C 131.195312 724.828125 131.433594 724.988281 131.703125 725.097656 C 131.972656 725.207031 132.253906 725.261719 132.542969 725.261719 C 132.832031 725.257812 133.113281 725.203125 133.378906 725.089844 C 133.648438 724.976562 133.882812 724.820312 134.089844 724.613281 C 134.292969 724.40625 134.453125 724.167969 134.5625 723.902344 C 134.671875 723.632812 134.726562 723.351562 134.726562 723.0625 C 134.726562 722.769531 134.667969 722.488281 134.554688 722.21875 C 134.441406 721.953125 134.285156 721.714844 134.074219 721.507812 C 133.867188 721.304688 133.628906 721.144531 133.359375 721.035156 C 133.089844 720.925781 132.808594 720.871094 132.515625 720.875 Z M 155.707031 720.875 C 155.414062 720.875 155.136719 720.929688 154.867188 721.042969 C 154.597656 721.152344 154.359375 721.3125 154.15625 721.515625 C 153.949219 721.722656 153.789062 721.960938 153.679688 722.230469 C 153.570312 722.5 153.511719 722.777344 153.511719 723.070312 C 153.515625 723.359375 153.570312 723.640625 153.679688 723.910156 C 153.792969 724.175781 153.953125 724.414062 154.15625 724.621094 C 154.363281 724.824219 154.601562 724.984375 154.871094 725.09375 C 155.140625 725.207031 155.417969 725.261719 155.710938 725.261719 C 156 725.257812 156.28125 725.203125 156.550781 725.089844 C 156.816406 724.980469 157.054688 724.820312 157.261719 724.613281 C 157.464844 724.410156 157.625 724.171875 157.734375 723.902344 C 157.84375 723.632812 157.898438 723.351562 157.898438 723.0625 C 157.898438 722.769531 157.84375 722.492188 157.730469 722.222656 C 157.617188 721.957031 157.460938 721.71875 157.253906 721.515625 C 157.050781 721.308594 156.8125 721.152344 156.542969 721.039062 C 156.277344 720.929688 155.996094 720.875 155.707031 720.875 Z M 178.902344 720.875 C 178.609375 720.875 178.332031 720.929688 178.0625 721.042969 C 177.792969 721.152344 177.554688 721.3125 177.351562 721.515625 C 177.144531 721.722656 176.984375 721.960938 176.875 722.230469 C 176.765625 722.5 176.707031 722.777344 176.707031 723.070312 C 176.707031 723.359375 176.765625 723.640625 176.875 723.910156 C 176.988281 724.175781 177.148438 724.414062 177.351562 724.621094 C 177.558594 724.824219 177.796875 724.984375 178.066406 725.09375 C 178.335938 725.207031 178.613281 725.261719 178.90625 725.261719 C 179.195312 725.257812 179.476562 725.203125 179.746094 725.089844 C 180.011719 724.980469 180.25 724.820312 180.457031 724.613281 C 180.660156 724.410156 180.820312 724.171875 180.929688 723.902344 C 181.039062 723.632812 181.09375 723.351562 181.09375 723.0625 C 181.09375 722.769531 181.039062 722.492188 180.925781 722.222656 C 180.8125 721.957031 180.65625 721.71875 180.449219 721.515625 C 180.246094 721.308594 180.007812 721.152344 179.738281 721.039062 C 179.472656 720.929688 179.191406 720.875 178.902344 720.875 Z M 202.097656 720.875 C 201.804688 720.871094 201.523438 720.925781 201.253906 721.035156 C 200.984375 721.144531 200.746094 721.300781 200.535156 721.503906 C 200.328125 721.707031 200.167969 721.945312 200.054688 722.214844 C 199.941406 722.484375 199.882812 722.761719 199.882812 723.054688 C 199.878906 723.34375 199.933594 723.625 200.042969 723.894531 C 200.15625 724.167969 200.3125 724.40625 200.519531 724.613281 C 200.722656 724.820312 200.960938 724.976562 201.230469 725.089844 C 201.5 725.203125 201.777344 725.257812 202.070312 725.261719 C 202.363281 725.261719 202.644531 725.203125 202.914062 725.09375 C 203.179688 724.980469 203.417969 724.824219 203.625 724.617188 C 203.832031 724.410156 203.988281 724.171875 204.101562 723.902344 C 204.210938 723.632812 204.269531 723.351562 204.265625 723.0625 C 204.265625 722.773438 204.210938 722.496094 204.101562 722.230469 C 203.992188 721.964844 203.832031 721.726562 203.628906 721.523438 C 203.425781 721.316406 203.191406 721.160156 202.925781 721.046875 C 202.660156 720.933594 202.386719 720.878906 202.097656 720.875 Z M -6.648438 743.308594 C -6.941406 743.304688 -7.21875 743.363281 -7.488281 743.472656 C -7.757812 743.582031 -7.996094 743.742188 -8.203125 743.945312 C -8.410156 744.152344 -8.566406 744.390625 -8.679688 744.65625 C -8.792969 744.925781 -8.847656 745.207031 -8.847656 745.496094 C -8.847656 745.789062 -8.792969 746.070312 -8.679688 746.339844 C -8.570312 746.605469 -8.410156 746.84375 -8.207031 747.050781 C -8 747.257812 -7.761719 747.414062 -7.492188 747.527344 C -7.222656 747.636719 -6.945312 747.691406 -6.652344 747.691406 C -6.363281 747.691406 -6.082031 747.636719 -5.8125 747.523438 C -5.542969 747.414062 -5.308594 747.253906 -5.101562 747.046875 C -4.894531 746.839844 -4.738281 746.605469 -4.628906 746.335938 C -4.515625 746.066406 -4.460938 745.785156 -4.460938 745.496094 C -4.464844 745.207031 -4.519531 744.929688 -4.632812 744.660156 C -4.746094 744.394531 -4.902344 744.160156 -5.109375 743.957031 C -5.3125 743.753906 -5.550781 743.597656 -5.816406 743.484375 C -6.082031 743.375 -6.359375 743.320312 -6.648438 743.316406 Z M 16.546875 743.308594 C 16.253906 743.304688 15.976562 743.363281 15.707031 743.472656 C 15.4375 743.582031 15.199219 743.742188 14.992188 743.945312 C 14.785156 744.152344 14.628906 744.386719 14.515625 744.65625 C 14.402344 744.925781 14.347656 745.207031 14.347656 745.496094 C 14.347656 745.785156 14.402344 746.066406 14.511719 746.335938 C 14.625 746.605469 14.78125 746.84375 14.988281 747.046875 C 15.191406 747.253906 15.429688 747.414062 15.699219 747.523438 C 15.96875 747.636719 16.246094 747.691406 16.539062 747.691406 C 16.828125 747.691406 17.109375 747.636719 17.378906 747.527344 C 17.648438 747.414062 17.882812 747.257812 18.089844 747.050781 C 18.296875 746.84375 18.453125 746.609375 18.566406 746.339844 C 18.675781 746.070312 18.734375 745.789062 18.734375 745.5 C 18.730469 745.210938 18.675781 744.933594 18.5625 744.664062 C 18.453125 744.398438 18.292969 744.164062 18.089844 743.957031 C 17.882812 743.753906 17.648438 743.597656 17.378906 743.484375 C 17.113281 743.375 16.835938 743.320312 16.546875 743.316406 Z M 39.734375 743.308594 C 39.445312 743.308594 39.164062 743.363281 38.894531 743.472656 C 38.628906 743.585938 38.390625 743.746094 38.183594 743.949219 C 37.980469 744.15625 37.820312 744.394531 37.710938 744.660156 C 37.597656 744.929688 37.542969 745.210938 37.542969 745.5 C 37.542969 745.792969 37.597656 746.074219 37.710938 746.339844 C 37.820312 746.609375 37.980469 746.847656 38.1875 747.050781 C 38.394531 747.257812 38.628906 747.417969 38.898438 747.527344 C 39.167969 747.636719 39.449219 747.691406 39.738281 747.691406 C 40.03125 747.691406 40.308594 747.636719 40.578125 747.523438 C 40.847656 747.414062 41.085938 747.253906 41.289062 747.046875 C 41.496094 746.839844 41.652344 746.601562 41.761719 746.335938 C 41.875 746.066406 41.929688 745.785156 41.929688 745.496094 C 41.925781 745.203125 41.867188 744.925781 41.757812 744.660156 C 41.644531 744.394531 41.484375 744.160156 41.28125 743.953125 C 41.074219 743.75 40.839844 743.59375 40.570312 743.484375 C 40.304688 743.375 40.023438 743.316406 39.734375 743.316406 Z M 62.929688 743.308594 C 62.640625 743.308594 62.359375 743.363281 62.089844 743.472656 C 61.824219 743.585938 61.585938 743.742188 61.378906 743.949219 C 61.175781 744.15625 61.015625 744.390625 60.90625 744.660156 C 60.792969 744.929688 60.738281 745.210938 60.738281 745.5 C 60.738281 745.789062 60.792969 746.070312 60.90625 746.339844 C 61.015625 746.609375 61.175781 746.84375 61.378906 747.050781 C 61.585938 747.257812 61.824219 747.414062 62.089844 747.527344 C 62.359375 747.636719 62.640625 747.691406 62.929688 747.691406 C 63.222656 747.691406 63.5 747.636719 63.769531 747.527344 C 64.039062 747.414062 64.277344 747.257812 64.480469 747.050781 C 64.6875 746.84375 64.84375 746.609375 64.957031 746.339844 C 65.066406 746.070312 65.125 745.789062 65.125 745.5 C 65.121094 745.210938 65.066406 744.933594 64.953125 744.667969 C 64.84375 744.398438 64.6875 744.164062 64.480469 743.960938 C 64.277344 743.757812 64.042969 743.597656 63.773438 743.488281 C 63.507812 743.375 63.230469 743.320312 62.941406 743.316406 Z M 86.125 743.308594 C 85.835938 743.308594 85.554688 743.363281 85.285156 743.472656 C 85.019531 743.585938 84.78125 743.742188 84.574219 743.949219 C 84.371094 744.15625 84.210938 744.390625 84.101562 744.660156 C 83.988281 744.929688 83.933594 745.210938 83.933594 745.5 C 83.933594 745.789062 83.988281 746.070312 84.101562 746.339844 C 84.210938 746.609375 84.371094 746.84375 84.574219 747.050781 C 84.78125 747.257812 85.019531 747.414062 85.285156 747.527344 C 85.554688 747.636719 85.835938 747.691406 86.125 747.691406 C 86.417969 747.691406 86.695312 747.636719 86.964844 747.527344 C 87.234375 747.414062 87.472656 747.257812 87.675781 747.050781 C 87.882812 746.84375 88.039062 746.609375 88.152344 746.339844 C 88.261719 746.070312 88.320312 745.789062 88.320312 745.5 C 88.316406 745.210938 88.261719 744.929688 88.148438 744.664062 C 88.035156 744.398438 87.878906 744.160156 87.671875 743.957031 C 87.46875 743.753906 87.230469 743.59375 86.960938 743.484375 C 86.695312 743.375 86.414062 743.316406 86.125 743.316406 Z M 109.320312 743.308594 C 109.03125 743.304688 108.75 743.359375 108.480469 743.472656 C 108.210938 743.582031 107.976562 743.742188 107.769531 743.945312 C 107.5625 744.152344 107.402344 744.386719 107.292969 744.65625 C 107.179688 744.925781 107.125 745.207031 107.121094 745.496094 C 107.121094 745.785156 107.175781 746.066406 107.289062 746.335938 C 107.398438 746.605469 107.558594 746.84375 107.761719 747.046875 C 107.96875 747.253906 108.207031 747.414062 108.472656 747.523438 C 108.742188 747.636719 109.023438 747.691406 109.3125 747.691406 C 109.605469 747.691406 109.882812 747.636719 110.152344 747.527344 C 110.421875 747.414062 110.660156 747.257812 110.867188 747.050781 C 111.070312 746.84375 111.230469 746.609375 111.339844 746.339844 C 111.453125 746.070312 111.507812 745.789062 111.507812 745.5 C 111.507812 745.210938 111.449219 744.933594 111.339844 744.664062 C 111.226562 744.398438 111.070312 744.164062 110.863281 743.957031 C 110.660156 743.753906 110.421875 743.597656 110.15625 743.484375 C 109.890625 743.375 109.609375 743.320312 109.320312 743.316406 Z M 132.515625 743.308594 C 132.226562 743.308594 131.945312 743.367188 131.679688 743.480469 C 131.410156 743.59375 131.175781 743.753906 130.972656 743.960938 C 130.769531 744.167969 130.613281 744.40625 130.503906 744.671875 C 130.394531 744.941406 130.339844 745.222656 130.339844 745.511719 C 130.34375 745.804688 130.398438 746.082031 130.511719 746.351562 C 130.625 746.617188 130.785156 746.855469 130.992188 747.058594 C 131.195312 747.261719 131.433594 747.417969 131.703125 747.53125 C 131.972656 747.640625 132.253906 747.695312 132.542969 747.691406 C 132.832031 747.691406 133.113281 747.632812 133.378906 747.523438 C 133.648438 747.410156 133.882812 747.25 134.089844 747.046875 C 134.292969 746.839844 134.453125 746.601562 134.5625 746.332031 C 134.671875 746.0625 134.726562 745.785156 134.726562 745.496094 C 134.722656 745.203125 134.667969 744.925781 134.554688 744.65625 C 134.441406 744.386719 134.277344 744.152344 134.070312 743.949219 C 133.863281 743.746094 133.625 743.589844 133.355469 743.480469 C 133.085938 743.371094 132.808594 743.316406 132.515625 743.316406 Z M 155.707031 743.308594 C 155.414062 743.308594 155.136719 743.363281 154.867188 743.472656 C 154.597656 743.585938 154.359375 743.742188 154.15625 743.949219 C 153.949219 744.15625 153.792969 744.390625 153.679688 744.660156 C 153.570312 744.929688 153.511719 745.210938 153.511719 745.5 C 153.511719 745.789062 153.570312 746.070312 153.679688 746.339844 C 153.792969 746.609375 153.949219 746.84375 154.15625 747.050781 C 154.359375 747.257812 154.597656 747.414062 154.867188 747.527344 C 155.136719 747.636719 155.414062 747.691406 155.707031 747.691406 C 155.996094 747.691406 156.277344 747.636719 156.546875 747.527344 C 156.8125 747.414062 157.050781 747.257812 157.257812 747.050781 C 157.460938 746.84375 157.621094 746.609375 157.730469 746.339844 C 157.84375 746.070312 157.898438 745.789062 157.898438 745.5 C 157.898438 745.210938 157.839844 744.929688 157.730469 744.664062 C 157.617188 744.398438 157.457031 744.160156 157.253906 743.957031 C 157.046875 743.753906 156.8125 743.59375 156.542969 743.484375 C 156.273438 743.375 155.996094 743.316406 155.707031 743.316406 Z M 178.902344 743.308594 C 178.609375 743.308594 178.332031 743.363281 178.0625 743.472656 C 177.792969 743.585938 177.554688 743.742188 177.351562 743.949219 C 177.144531 744.15625 176.988281 744.390625 176.875 744.660156 C 176.765625 744.929688 176.707031 745.210938 176.707031 745.5 C 176.707031 745.789062 176.765625 746.070312 176.875 746.339844 C 176.988281 746.609375 177.144531 746.84375 177.351562 747.050781 C 177.554688 747.257812 177.792969 747.414062 178.0625 747.527344 C 178.332031 747.636719 178.609375 747.691406 178.902344 747.691406 C 179.191406 747.691406 179.472656 747.636719 179.742188 747.527344 C 180.007812 747.414062 180.246094 747.257812 180.453125 747.050781 C 180.65625 746.84375 180.816406 746.609375 180.925781 746.339844 C 181.039062 746.070312 181.09375 745.789062 181.09375 745.5 C 181.09375 745.210938 181.035156 744.929688 180.925781 744.664062 C 180.8125 744.398438 180.652344 744.160156 180.449219 743.957031 C 180.242188 743.753906 180.007812 743.59375 179.738281 743.484375 C 179.46875 743.375 179.191406 743.316406 178.902344 743.316406 Z M 202.097656 743.308594 C 201.804688 743.304688 201.523438 743.355469 201.253906 743.464844 C 200.984375 743.574219 200.746094 743.730469 200.535156 743.9375 C 200.328125 744.140625 200.167969 744.378906 200.054688 744.644531 C 199.941406 744.914062 199.882812 745.195312 199.882812 745.488281 C 199.878906 745.777344 199.933594 746.058594 200.042969 746.328125 C 200.15625 746.597656 200.3125 746.835938 200.519531 747.042969 C 200.722656 747.25 200.960938 747.410156 201.230469 747.523438 C 201.5 747.636719 201.777344 747.691406 202.070312 747.691406 C 202.363281 747.691406 202.644531 747.636719 202.914062 747.527344 C 203.179688 747.414062 203.417969 747.257812 203.625 747.050781 C 203.832031 746.84375 203.988281 746.605469 204.101562 746.335938 C 204.210938 746.066406 204.269531 745.785156 204.265625 745.496094 C 204.265625 745.207031 204.207031 744.929688 204.097656 744.664062 C 203.988281 744.398438 203.828125 744.164062 203.625 743.960938 C 203.425781 743.757812 203.191406 743.601562 202.925781 743.488281 C 202.660156 743.378906 202.382812 743.320312 202.097656 743.316406 Z M 202.097656 743.308594 " fill-opacity="1" fill-rule="nonzero"/></g><g clip-path="url(#15845536dc)"><g clip-path="url(#38212feef0)"><g clip-path="url(#320aa4f03a)"><path fill="#b2ffc5" d="M -236.261719 -695.457031 L 460.726562 -207.542969 L -181.566406 709.976562 L -878.554688 222.0625 Z M -236.261719 -695.457031 " fill-opacity="1" fill-rule="nonzero"/></g></g></g><g clip-path="url(#eca5a28a7b)"><g clip-path="url(#720a172b38)"><path fill="#b2ffc5" d="M -489.363281 608.425781 L -335.433594 420.394531 L 155.207031 822.050781 L 1.277344 1010.082031 Z M -489.363281 608.425781 " fill-opacity="1" fill-rule="nonzero"/></g></g><g clip-path="url(#1c745f718d)"><g clip-path="url(#2f2dce9400)"><path fill="#76ff45" d="M -503.03125 635.769531 L -349.105469 447.738281 L 141.535156 849.394531 L -12.390625 1037.421875 Z M -503.03125 635.769531 " fill-opacity="1" fill-rule="nonzero"/></g></g></svg>