<svg xmlns="http://www.w3.org/2000/svg" xmlns:xlink="http://www.w3.org/1999/xlink" width="1920" zoomAndPan="magnify" viewBox="0 0 1440 809.999993" height="1080" preserveAspectRatio="xMidYMid meet" version="1.0"><defs><clipPath id="a57ea3452a"><path d="M 0 0 L 113 0 L 113 161 L 0 161 Z M 0 0 " clip-rule="nonzero"/></clipPath><clipPath id="3a52cb41f8"><path d="M -531.738281 -241.277344 L -377.8125 -429.304688 L 113.046875 -27.472656 L -40.878906 160.558594 Z M -531.738281 -241.277344 " clip-rule="nonzero"/></clipPath><clipPath id="625679429e"><path d="M 0 0 L 58 0 L 58 171 L 0 171 Z M 0 0 " clip-rule="nonzero"/></clipPath><clipPath id="ed2cce4ea4"><path d="M -587.550781 -231.078125 L -433.625 -419.109375 L 57.234375 -17.273438 L -96.691406 170.753906 Z M -587.550781 -231.078125 " clip-rule="nonzero"/></clipPath></defs><g clip-path="url(#a57ea3452a)"><g clip-path="url(#3a52cb41f8)"><path fill="#b2ffc5" d="M -531.738281 -241.277344 L -377.8125 -429.304688 L 112.828125 -27.652344 L -41.097656 160.378906 Z M -531.738281 -241.277344 " fill-opacity="1" fill-rule="nonzero"/></g></g><g clip-path="url(#625679429e)"><g clip-path="url(#ed2cce4ea4)"><path fill="#76ff45" d="M -587.550781 -231.078125 L -433.625 -419.109375 L 57.015625 -17.453125 L -96.910156 170.574219 Z M -587.550781 -231.078125 " fill-opacity="1" fill-rule="nonzero"/></g></g></svg>