<svg xmlns="http://www.w3.org/2000/svg" xmlns:xlink="http://www.w3.org/1999/xlink" width="500" zoomAndPan="magnify" viewBox="0 0 375 374.999991" height="500" preserveAspectRatio="xMidYMid meet" version="1.0"><defs><clipPath id="9909b5ac9e"><path d="M 69.363281 109.597656 L 244 109.597656 L 244 230.488281 L 69.363281 230.488281 Z M 69.363281 109.597656 " clip-rule="nonzero"/></clipPath><clipPath id="5be9ad7f33"><path d="M 86.613281 109.597656 L 226.5 109.597656 C 231.074219 109.597656 235.460938 111.414062 238.699219 114.652344 C 241.933594 117.886719 243.75 122.273438 243.75 126.847656 L 243.75 213.238281 C 243.75 217.816406 241.933594 222.203125 238.699219 225.4375 C 235.460938 228.671875 231.074219 230.488281 226.5 230.488281 L 86.613281 230.488281 C 82.035156 230.488281 77.648438 228.671875 74.414062 225.4375 C 71.179688 222.203125 69.363281 217.816406 69.363281 213.238281 L 69.363281 126.847656 C 69.363281 122.273438 71.179688 117.886719 74.414062 114.652344 C 77.648438 111.414062 82.035156 109.597656 86.613281 109.597656 Z M 86.613281 109.597656 " clip-rule="nonzero"/></clipPath><clipPath id="2933324113"><path d="M 104.5 241.011719 L 208.628906 241.011719 L 208.628906 265.402344 L 104.5 265.402344 Z M 104.5 241.011719 " clip-rule="nonzero"/></clipPath><clipPath id="2784453cde"><path d="M 116.695312 241.011719 L 196.417969 241.011719 C 203.152344 241.011719 208.609375 246.472656 208.609375 253.207031 C 208.609375 259.941406 203.152344 265.402344 196.417969 265.402344 L 116.695312 265.402344 C 109.960938 265.402344 104.5 259.941406 104.5 253.207031 C 104.5 246.472656 109.960938 241.011719 116.695312 241.011719 Z M 116.695312 241.011719 " clip-rule="nonzero"/></clipPath><clipPath id="67db03f078"><path d="M 257.125 152.902344 L 305.636719 152.902344 L 305.636719 265.46875 L 257.125 265.46875 Z M 257.125 152.902344 " clip-rule="nonzero"/></clipPath><clipPath id="1bba500252"><path d="M 274.375 152.902344 L 288.386719 152.902344 C 292.964844 152.902344 297.351562 154.71875 300.585938 157.953125 C 303.820312 161.1875 305.636719 165.578125 305.636719 170.152344 L 305.636719 248.152344 C 305.636719 252.726562 303.820312 257.113281 300.585938 260.347656 C 297.351562 263.585938 292.964844 265.402344 288.386719 265.402344 L 274.375 265.402344 C 269.800781 265.402344 265.410156 263.585938 262.175781 260.347656 C 258.941406 257.113281 257.125 252.726562 257.125 248.152344 L 257.125 170.152344 C 257.125 165.578125 258.941406 161.1875 262.175781 157.953125 C 265.410156 154.71875 269.800781 152.902344 274.375 152.902344 Z M 274.375 152.902344 " clip-rule="nonzero"/></clipPath></defs><g clip-path="url(#9909b5ac9e)"><g clip-path="url(#5be9ad7f33)"><path fill="#6edd68" d="M 69.363281 109.597656 L 243.617188 109.597656 L 243.617188 230.488281 L 69.363281 230.488281 Z M 69.363281 109.597656 " fill-opacity="1" fill-rule="nonzero"/></g></g><g clip-path="url(#2933324113)"><g clip-path="url(#2784453cde)"><path fill="#6edd68" d="M 104.5 241.011719 L 208.628906 241.011719 L 208.628906 265.402344 L 104.5 265.402344 Z M 104.5 241.011719 " fill-opacity="1" fill-rule="nonzero"/></g></g><g clip-path="url(#67db03f078)"><g clip-path="url(#1bba500252)"><path fill="#6edd68" d="M 257.125 152.902344 L 305.636719 152.902344 L 305.636719 265.46875 L 257.125 265.46875 Z M 257.125 152.902344 " fill-opacity="1" fill-rule="nonzero"/></g></g></svg>