<svg xmlns="http://www.w3.org/2000/svg" xmlns:xlink="http://www.w3.org/1999/xlink" width="500" zoomAndPan="magnify" viewBox="0 0 375 374.999991" height="500" preserveAspectRatio="xMidYMid meet" version="1.0"><defs><clipPath id="7607a302ca"><path d="M 37.5 158 L 125.390625 158 L 125.390625 268.546875 L 37.5 268.546875 Z M 37.5 158 " clip-rule="nonzero"/></clipPath><clipPath id="b40d002cc0"><path d="M 125.390625 169.25 L 125.390625 243.429688 C 125.390625 250.179688 121.15625 256.203125 114.804688 258.488281 L 92.03125 266.6875 C 85.1875 269.152344 77.703125 269.152344 70.859375 266.6875 L 48.085938 258.488281 C 41.734375 256.203125 37.5 250.179688 37.5 243.429688 L 37.5 169.25 C 37.5 163.035156 42.535156 158 48.75 158 L 114.140625 158 C 120.355469 158 125.390625 163.035156 125.390625 169.25 Z M 125.390625 169.25 " clip-rule="nonzero"/></clipPath><clipPath id="d0d053fa94"><path d="M 143.554688 187.5 L 231.445312 187.5 L 231.445312 298.050781 L 143.554688 298.050781 Z M 143.554688 187.5 " clip-rule="nonzero"/></clipPath><clipPath id="3d003340d8"><path d="M 231.445312 198.75 L 231.445312 272.929688 C 231.445312 279.679688 227.210938 285.703125 220.859375 287.992188 L 198.085938 296.1875 C 191.242188 298.652344 183.757812 298.652344 176.914062 296.1875 L 154.140625 287.992188 C 147.789062 285.703125 143.554688 279.679688 143.554688 272.929688 L 143.554688 198.75 C 143.554688 192.535156 148.589844 187.5 154.804688 187.5 L 220.195312 187.5 C 226.410156 187.5 231.445312 192.535156 231.445312 198.75 Z M 231.445312 198.75 " clip-rule="nonzero"/></clipPath><clipPath id="a4327755b1"><path d="M 249.609375 158 L 337.5 158 L 337.5 268.546875 L 249.609375 268.546875 Z M 249.609375 158 " clip-rule="nonzero"/></clipPath><clipPath id="9c31bc6597"><path d="M 337.5 169.25 L 337.5 243.429688 C 337.5 250.179688 333.265625 256.203125 326.914062 258.488281 L 304.140625 266.6875 C 297.296875 269.152344 289.8125 269.152344 282.96875 266.6875 L 260.195312 258.488281 C 253.84375 256.203125 249.609375 250.179688 249.609375 243.429688 L 249.609375 169.25 C 249.609375 163.035156 254.644531 158 260.859375 158 L 326.25 158 C 332.464844 158 337.5 163.035156 337.5 169.25 Z M 337.5 169.25 " clip-rule="nonzero"/></clipPath><clipPath id="af9c91c553"><path d="M 143.554688 57.824219 L 231.445312 57.824219 L 231.445312 168.375 L 143.554688 168.375 Z M 143.554688 57.824219 " clip-rule="nonzero"/></clipPath><clipPath id="bfc54b57ca"><path d="M 231.445312 69.074219 L 231.445312 143.253906 C 231.445312 150.003906 227.210938 156.027344 220.859375 158.3125 L 198.085938 166.511719 C 191.242188 168.976562 183.757812 168.976562 176.914062 166.511719 L 154.140625 158.3125 C 147.789062 156.027344 143.554688 150.003906 143.554688 143.253906 L 143.554688 69.074219 C 143.554688 62.859375 148.589844 57.824219 154.804688 57.824219 L 220.195312 57.824219 C 226.410156 57.824219 231.445312 62.859375 231.445312 69.074219 Z M 231.445312 69.074219 " clip-rule="nonzero"/></clipPath></defs><g clip-path="url(#7607a302ca)"><g clip-path="url(#b40d002cc0)"><path fill="#6edd68" d="M 37.5 158 L 125.390625 158 L 125.390625 270.609375 L 37.5 270.609375 Z M 37.5 158 " fill-opacity="1" fill-rule="nonzero"/></g></g><g clip-path="url(#d0d053fa94)"><g clip-path="url(#3d003340d8)"><path fill="#6edd68" d="M 143.554688 187.5 L 231.445312 187.5 L 231.445312 300.109375 L 143.554688 300.109375 Z M 143.554688 187.5 " fill-opacity="1" fill-rule="nonzero"/></g></g><g clip-path="url(#a4327755b1)"><g clip-path="url(#9c31bc6597)"><path fill="#6edd68" d="M 249.609375 158 L 337.5 158 L 337.5 270.609375 L 249.609375 270.609375 Z M 249.609375 158 " fill-opacity="1" fill-rule="nonzero"/></g></g><g clip-path="url(#af9c91c553)"><g clip-path="url(#bfc54b57ca)"><path fill="#6edd68" d="M 143.554688 57.824219 L 231.445312 57.824219 L 231.445312 170.433594 L 143.554688 170.433594 Z M 143.554688 57.824219 " fill-opacity="1" fill-rule="nonzero"/></g></g></svg>