<svg xmlns="http://www.w3.org/2000/svg" xmlns:xlink="http://www.w3.org/1999/xlink" width="500" zoomAndPan="magnify" viewBox="0 0 375 374.999991" height="500" preserveAspectRatio="xMidYMid meet" version="1.0"><defs><clipPath id="4b5d3895bc"><path d="M 37.5 256.863281 L 337.527344 256.863281 L 337.527344 308.652344 L 37.5 308.652344 Z M 37.5 256.863281 " clip-rule="nonzero"/></clipPath><clipPath id="3a88711a85"><path d="M 55.5 256.863281 L 319.5 256.863281 C 324.273438 256.863281 328.851562 258.757812 332.226562 262.132812 C 335.605469 265.507812 337.5 270.089844 337.5 274.863281 L 337.5 290.652344 C 337.5 295.425781 335.605469 300.007812 332.226562 303.382812 C 328.851562 306.757812 324.273438 308.652344 319.5 308.652344 L 55.5 308.652344 C 45.558594 308.652344 37.5 300.59375 37.5 290.652344 L 37.5 274.863281 C 37.5 270.089844 39.394531 265.507812 42.773438 262.132812 C 46.148438 258.757812 50.726562 256.863281 55.5 256.863281 Z M 55.5 256.863281 " clip-rule="nonzero"/></clipPath><clipPath id="c42549a8ad"><path d="M 135.203125 37.5 L 239.792969 37.5 L 239.792969 219.433594 L 135.203125 219.433594 Z M 135.203125 37.5 " clip-rule="nonzero"/></clipPath><clipPath id="fdb0cd669d"><path d="M 182.195312 217.074219 L 136.554688 171.429688 C 135.664062 170.542969 135.398438 169.207031 135.878906 168.046875 C 136.359375 166.882812 137.492188 166.128906 138.75 166.128906 L 151.875 166.128906 C 156.015625 166.128906 159.375 162.769531 159.375 158.628906 L 159.375 45 C 159.375 40.859375 162.734375 37.5 166.875 37.5 L 208.125 37.5 C 212.265625 37.5 215.625 40.859375 215.625 45 L 215.625 158.628906 C 215.625 162.769531 218.984375 166.128906 223.125 166.128906 L 236.25 166.128906 C 237.507812 166.128906 238.640625 166.882812 239.121094 168.046875 C 239.601562 169.207031 239.335938 170.542969 238.445312 171.429688 L 192.804688 217.074219 C 189.875 220.003906 185.125 220.003906 182.195312 217.074219 Z M 182.195312 217.074219 " clip-rule="nonzero"/></clipPath></defs><g clip-path="url(#4b5d3895bc)"><g clip-path="url(#3a88711a85)"><path fill="#6edd68" d="M 37.5 256.863281 L 337.527344 256.863281 L 337.527344 308.652344 L 37.5 308.652344 Z M 37.5 256.863281 " fill-opacity="1" fill-rule="nonzero"/></g></g><g clip-path="url(#c42549a8ad)"><g clip-path="url(#fdb0cd669d)"><path fill="#6edd68" d="M 131.25 37.5 L 243.75 37.5 L 243.75 222.507812 L 131.25 222.507812 Z M 131.25 37.5 " fill-opacity="1" fill-rule="nonzero"/></g></g></svg>