<svg xmlns="http://www.w3.org/2000/svg" xmlns:xlink="http://www.w3.org/1999/xlink" width="500" zoomAndPan="magnify" viewBox="0 0 375 374.999991" height="500" preserveAspectRatio="xMidYMid meet" version="1.0"><defs><clipPath id="d604427be3"><path d="M 89.816406 70.410156 L 285.183594 70.410156 L 285.183594 102.875 L 89.816406 102.875 Z M 89.816406 70.410156 " clip-rule="nonzero"/></clipPath><clipPath id="aae442fa99"><path d="M 141.796875 102.875 L 233.402344 102.875 L 233.402344 167.125 L 141.796875 167.125 Z M 141.796875 102.875 " clip-rule="nonzero"/></clipPath><clipPath id="8944e7bf30"><path d="M 172.28125 164.484375 C 176.96875 166.078125 182.296875 167.125 187.523438 167.125 C 192.753906 167.125 197.785156 166.226562 202.421875 164.632812 C 202.519531 164.585938 202.621094 164.585938 202.71875 164.535156 C 220.132812 158.160156 232.957031 141.328125 233.203125 122.726562 L 233.203125 102.875 L 141.796875 102.875 L 141.796875 122.714844 C 142.042969 141.425781 154.671875 158.257812 172.28125 164.484375 Z M 172.28125 164.484375 " clip-rule="nonzero"/></clipPath><clipPath id="67764a6ded"><path d="M 112.5 150 L 262.5 150 L 262.5 225 L 112.5 225 Z M 112.5 150 " clip-rule="nonzero"/></clipPath><clipPath id="01160c7065"><path d="M 262.5 221.25 L 262.5 153.75 C 262.5 151.679688 260.820312 150 258.75 150 L 116.25 150 C 114.179688 150 112.5 151.679688 112.5 153.75 L 112.5 221.25 C 112.5 223.320312 114.179688 225 116.25 225 L 258.75 225 C 260.820312 225 262.5 223.320312 262.5 221.25 Z M 262.5 221.25 " clip-rule="nonzero"/></clipPath><clipPath id="97d5859749"><path d="M 83.152344 187.40625 L 291.652344 187.40625 L 291.652344 291.65625 L 83.152344 291.65625 Z M 83.152344 187.40625 " clip-rule="nonzero"/></clipPath><clipPath id="5dfa0ca0c4"><path d="M 291.652344 287.90625 L 291.652344 191.246094 C 291.652344 189.175781 289.972656 187.496094 287.902344 187.496094 L 87.078125 187.496094 C 85.007812 187.496094 83.328125 189.175781 83.328125 191.246094 L 83.328125 287.90625 C 83.328125 289.976562 85.007812 291.65625 87.078125 291.65625 L 287.902344 291.65625 C 289.972656 291.65625 291.652344 289.976562 291.652344 287.90625 Z M 291.652344 287.90625 " clip-rule="nonzero"/></clipPath></defs><g clip-path="url(#d604427be3)"><path fill="#6edd68" d="M 89.816406 70.410156 L 285.242188 70.410156 L 285.242188 102.875 L 89.816406 102.875 Z M 89.816406 70.410156 " fill-opacity="1" fill-rule="nonzero"/></g><g clip-path="url(#aae442fa99)"><g clip-path="url(#8944e7bf30)"><path fill="#6edd68" d="M 141.796875 102.875 L 233.148438 102.875 L 233.148438 167.125 L 141.796875 167.125 Z M 141.796875 102.875 " fill-opacity="1" fill-rule="nonzero"/></g></g><g clip-path="url(#67764a6ded)"><g clip-path="url(#01160c7065)"><path fill="#6edd68" d="M 262.488281 149.90625 C 262.488281 191.589844 229.140625 224.9375 187.457031 224.9375 C 145.773438 224.9375 112.425781 191.589844 112.425781 149.90625 L 120.382812 149.90625 C 120.382812 187.230469 150.132812 216.980469 187.457031 216.980469 C 224.785156 216.980469 254.53125 187.230469 254.53125 149.90625 Z M 262.488281 149.90625 " fill-opacity="1" fill-rule="nonzero"/></g></g><g clip-path="url(#97d5859749)"><g clip-path="url(#5dfa0ca0c4)"><path fill="#6edd68" d="M 291.636719 187.367188 C 291.636719 245.257812 245.324219 291.570312 187.4375 291.570312 C 129.546875 291.570312 83.238281 245.257812 83.238281 187.367188 L 94.289062 187.367188 C 94.289062 239.207031 135.601562 280.515625 187.4375 280.515625 C 239.273438 280.515625 280.585938 239.207031 280.585938 187.367188 Z M 291.636719 187.367188 " fill-opacity="1" fill-rule="nonzero"/></g></g></svg>