<svg xmlns="http://www.w3.org/2000/svg" xmlns:xlink="http://www.w3.org/1999/xlink" width="500" zoomAndPan="magnify" viewBox="0 0 375 374.999991" height="500" preserveAspectRatio="xMidYMid meet" version="1.0"><defs><g/></defs><g fill="#000000" fill-opacity="1"><g transform="translate(281.558247, 303.72376)"><g><path d="M 8.40625 0.40625 C 7.019531 0.40625 5.816406 0.15625 4.796875 -0.34375 C 3.785156 -0.851562 3.003906 -1.597656 2.453125 -2.578125 C 1.910156 -3.566406 1.640625 -4.753906 1.640625 -6.140625 C 1.640625 -7.410156 1.910156 -8.476562 2.453125 -9.34375 C 3.003906 -10.207031 3.851562 -10.914062 5 -11.46875 C 6.144531 -12.03125 7.644531 -12.457031 9.5 -12.75 C 10.78125 -12.957031 11.753906 -13.1875 12.421875 -13.4375 C 13.097656 -13.6875 13.550781 -13.96875 13.78125 -14.28125 C 14.019531 -14.59375 14.140625 -14.988281 14.140625 -15.46875 C 14.140625 -16.15625 13.898438 -16.679688 13.421875 -17.046875 C 12.941406 -17.410156 12.140625 -17.59375 11.015625 -17.59375 C 9.816406 -17.59375 8.675781 -17.328125 7.59375 -16.796875 C 6.519531 -16.265625 5.582031 -15.5625 4.78125 -14.6875 L 4.390625 -14.6875 L 2.125 -18.109375 C 3.21875 -19.316406 4.550781 -20.257812 6.125 -20.9375 C 7.707031 -21.613281 9.429688 -21.953125 11.296875 -21.953125 C 14.140625 -21.953125 16.195312 -21.347656 17.46875 -20.140625 C 18.75 -18.929688 19.390625 -17.210938 19.390625 -14.984375 L 19.390625 -5.625 C 19.390625 -4.664062 19.816406 -4.1875 20.671875 -4.1875 C 20.992188 -4.1875 21.3125 -4.242188 21.625 -4.359375 L 21.890625 -4.28125 L 22.28125 -0.515625 C 21.988281 -0.316406 21.570312 -0.15625 21.03125 -0.03125 C 20.5 0.09375 19.914062 0.15625 19.28125 0.15625 C 17.988281 0.15625 16.976562 -0.0859375 16.25 -0.578125 C 15.53125 -1.078125 15.015625 -1.851562 14.703125 -2.90625 L 14.296875 -2.953125 C 13.242188 -0.710938 11.28125 0.40625 8.40625 0.40625 Z M 10.125 -3.640625 C 11.375 -3.640625 12.367188 -4.054688 13.109375 -4.890625 C 13.859375 -5.734375 14.234375 -6.90625 14.234375 -8.40625 L 14.234375 -10.59375 L 13.875 -10.671875 C 13.539062 -10.410156 13.109375 -10.191406 12.578125 -10.015625 C 12.054688 -9.835938 11.300781 -9.664062 10.3125 -9.5 C 9.144531 -9.300781 8.300781 -8.960938 7.78125 -8.484375 C 7.269531 -8.015625 7.015625 -7.34375 7.015625 -6.46875 C 7.015625 -5.539062 7.285156 -4.835938 7.828125 -4.359375 C 8.378906 -3.878906 9.144531 -3.640625 10.125 -3.640625 Z M 10.125 -3.640625 "/></g></g></g><path fill="#7ed957" d="M 218.128906 241.503906 L 241.492188 218.140625 L 288.925781 265.570312 L 265.5625 288.933594 Z M 218.128906 241.503906 " fill-opacity="1" fill-rule="nonzero"/><path fill="#7ed957" d="M 363.835938 313.972656 C 374.160156 324.296875 374.160156 341.046875 363.835938 351.386719 L 351.371094 363.835938 C 341.03125 374.175781 324.296875 374.175781 313.972656 363.835938 L 247.167969 297.015625 C 236.828125 286.679688 236.828125 269.941406 247.152344 259.617188 L 259.617188 247.152344 C 269.941406 236.828125 286.707031 236.828125 297.03125 247.152344 Z M 363.835938 313.972656 " fill-opacity="1" fill-rule="nonzero"/><path fill="#7ed957" d="M 141.890625 -0.171875 C 63.417969 -0.171875 -0.171875 63.417969 -0.171875 141.890625 C -0.171875 220.367188 63.417969 283.972656 141.890625 283.972656 C 220.367188 283.972656 283.972656 220.367188 283.972656 141.890625 C 283.972656 63.417969 220.367188 -0.171875 141.890625 -0.171875 Z M 141.890625 257.679688 C 77.925781 257.679688 26.089844 205.859375 26.089844 141.890625 C 26.089844 77.925781 77.925781 26.105469 141.890625 26.105469 C 205.859375 26.105469 257.691406 77.925781 257.691406 141.890625 C 257.691406 205.859375 205.859375 257.679688 141.890625 257.679688 Z M 141.890625 257.679688 " fill-opacity="1" fill-rule="nonzero"/><path fill="#7ed957" d="M 171.023438 212.214844 C 114.351562 212.214844 68.382812 166.257812 68.382812 109.574219 C 68.382812 108.070312 68.542969 106.59375 68.613281 105.085938 C 61.128906 117.191406 56.742188 131.421875 56.742188 146.683594 C 56.742188 190.511719 92.273438 226.027344 136.085938 226.027344 C 153.011719 226.027344 168.648438 220.699219 181.550781 211.679688 C 178.089844 212.054688 174.570312 212.214844 171.023438 212.214844 Z M 171.023438 212.214844 " fill-opacity="1" fill-rule="nonzero"/></svg>