<svg xmlns="http://www.w3.org/2000/svg" xmlns:xlink="http://www.w3.org/1999/xlink" width="500" zoomAndPan="magnify" viewBox="0 0 375 374.999991" height="500" preserveAspectRatio="xMidYMid meet" version="1.0"><defs><clipPath id="88e4f1c95f"><path d="M 60.183594 227.65625 L 314.835938 227.65625 L 314.835938 274.792969 L 60.183594 274.792969 Z M 60.183594 227.65625 " clip-rule="nonzero"/></clipPath><clipPath id="fc22d9db17"><path d="M 286.691406 227.65625 L 60.183594 227.65625 L 88.308594 274.792969 L 314.816406 274.792969 Z M 286.691406 227.65625 " clip-rule="nonzero"/></clipPath><clipPath id="b026587919"><path d="M 140.953125 37.5 L 234.046875 37.5 L 234.046875 130.59375 L 140.953125 130.59375 Z M 140.953125 37.5 " clip-rule="nonzero"/></clipPath><clipPath id="9f837e6b21"><path d="M 187.5 37.5 C 161.792969 37.5 140.953125 58.339844 140.953125 84.046875 C 140.953125 109.753906 161.792969 130.59375 187.5 130.59375 C 213.207031 130.59375 234.046875 109.753906 234.046875 84.046875 C 234.046875 58.339844 213.207031 37.5 187.5 37.5 Z M 187.5 37.5 " clip-rule="nonzero"/></clipPath></defs><g clip-path="url(#88e4f1c95f)"><g clip-path="url(#fc22d9db17)"><path fill="#6edd68" d="M 60.183594 227.65625 L 314.835938 227.65625 L 314.835938 274.792969 L 60.183594 274.792969 Z M 60.183594 227.65625 " fill-opacity="1" fill-rule="nonzero"/></g></g><g clip-path="url(#b026587919)"><g clip-path="url(#9f837e6b21)"><path fill="#6edd68" d="M 140.953125 37.5 L 234.046875 37.5 L 234.046875 130.59375 L 140.953125 130.59375 Z M 140.953125 37.5 " fill-opacity="1" fill-rule="nonzero"/></g></g><path stroke-linecap="butt" transform="matrix(-0.228657, 0.714294, -0.714294, -0.228657, 234.044915, 152.635596)" fill="none" stroke-linejoin="miter" d="M 0.00143559 1.998335 L 78.739535 1.998173 " stroke="#6edd68" stroke-width="4" stroke-opacity="1" stroke-miterlimit="4"/><path stroke-linecap="round" transform="matrix(-0.228657, 0.714294, -0.714294, -0.228657, 234.044915, 152.635596)" fill-opacity="1" fill="#6edd68" fill-rule="nonzero" stroke-linejoin="round" d="M 79.740139 -3.998633 L 87.741135 1.998613 L 79.73684 8.000721 Z M 79.740139 -3.998633 " stroke="#6edd68" stroke-width="4" stroke-opacity="1" stroke-miterlimit="4"/><path stroke-linecap="butt" transform="matrix(-0.228657, 0.714294, -0.714294, -0.228657, 197.757443, 151.713139)" fill="none" stroke-linejoin="miter" d="M -0.00213953 2.001707 L 78.74092 1.999956 " stroke="#6edd68" stroke-width="4" stroke-opacity="1" stroke-miterlimit="4"/><path stroke-linecap="round" transform="matrix(-0.228657, 0.714294, -0.714294, -0.228657, 197.757443, 151.713139)" fill-opacity="1" fill="#6edd68" fill-rule="nonzero" stroke-linejoin="round" d="M 79.739937 -4.001811 L 87.737559 2.001984 L 79.738225 8.002505 Z M 79.739937 -4.001811 " stroke="#6edd68" stroke-width="4" stroke-opacity="1" stroke-miterlimit="4"/><path stroke-linecap="butt" transform="matrix(-0.228657, 0.714294, -0.714294, -0.228657, 161.469985, 150.790668)" fill="none" stroke-linejoin="miter" d="M -0.00231803 1.998542 L 78.735782 1.998379 " stroke="#6edd68" stroke-width="4" stroke-opacity="1" stroke-miterlimit="4"/><path stroke-linecap="round" transform="matrix(-0.228657, 0.714294, -0.714294, -0.228657, 161.469985, 150.790668)" fill-opacity="1" fill="#6edd68" fill-rule="nonzero" stroke-linejoin="round" d="M 79.741346 -4.000015 L 87.737381 1.99882 L 79.738047 7.99934 Z M 79.741346 -4.000015 " stroke="#6edd68" stroke-width="4" stroke-opacity="1" stroke-miterlimit="4"/></svg>