<svg xmlns="http://www.w3.org/2000/svg" xmlns:xlink="http://www.w3.org/1999/xlink" width="1920" zoomAndPan="magnify" viewBox="0 0 1440 809.999993" height="1080" preserveAspectRatio="xMidYMid meet" version="1.0"><defs><clipPath id="95d47e156c"><path d="M 0 0 L 296 0 L 296 382 L 0 382 Z M 0 0 " clip-rule="nonzero"/></clipPath><clipPath id="7b2fbdb707"><path d="M 99.132812 -273.933594 L 295.453125 -130.726562 L -78.390625 381.773438 L -274.707031 238.566406 Z M 99.132812 -273.933594 " clip-rule="nonzero"/></clipPath><clipPath id="19ac9cf18f"><path d="M 0 0 L 230 0 L 230 386 L 0 386 Z M 0 0 " clip-rule="nonzero"/></clipPath><clipPath id="0b66bb495f"><path d="M 33.046875 -270.242188 L 229.367188 -127.035156 L -144.476562 385.464844 L -340.796875 242.257812 Z M 33.046875 -270.242188 " clip-rule="nonzero"/></clipPath></defs><g clip-path="url(#95d47e156c)"><g clip-path="url(#7b2fbdb707)"><path fill="#b2ffc5" d="M 99.132812 -273.933594 L 295.453125 -130.726562 L -78.222656 381.542969 L -274.542969 238.339844 Z M 99.132812 -273.933594 " fill-opacity="1" fill-rule="nonzero"/></g></g><g clip-path="url(#19ac9cf18f)"><g clip-path="url(#0b66bb495f)"><path fill="#83e63e" d="M 33.046875 -270.242188 L 229.367188 -127.035156 L -144.308594 385.234375 L -340.628906 242.03125 Z M 33.046875 -270.242188 " fill-opacity="1" fill-rule="nonzero"/></g></g></svg>